<?xml version="1.0" encoding="UTF-8" ?>
<svg version="1.1" width="128" height="50" xmlns="http://www.w3.org/2000/svg" shape-rendering="crispEdges">
<rect x="85" y="6" width="1" height="1" fill="#9BADB7" />
<rect x="86" y="6" width="1" height="1" fill="#9BADB7" />
<rect x="87" y="6" width="1" height="1" fill="#9BADB7" />
<rect x="88" y="6" width="1" height="1" fill="#9BADB7" />
<rect x="87" y="7" width="1" height="1" fill="#9BADB7" />
<rect x="86" y="8" width="1" height="1" fill="#9BADB7" />
<rect x="85" y="9" width="1" height="1" fill="#9BADB7" />
<rect x="85" y="10" width="1" height="1" fill="#9BADB7" />
<rect x="86" y="10" width="1" height="1" fill="#9BADB7" />
<rect x="87" y="10" width="1" height="1" fill="#9BADB7" />
<rect x="88" y="10" width="1" height="1" fill="#9BADB7" />
<rect x="81" y="12" width="1" height="1" fill="#9BADB7" />
<rect x="82" y="12" width="1" height="1" fill="#9BADB7" />
<rect x="83" y="12" width="1" height="1" fill="#9BADB7" />
<rect x="84" y="12" width="1" height="1" fill="#9BADB7" />
<rect x="49" y="13" width="1" height="1" fill="#9BADB7" />
<rect x="50" y="13" width="1" height="1" fill="#9BADB7" />
<rect x="51" y="13" width="1" height="1" fill="#9BADB7" />
<rect x="52" y="13" width="1" height="1" fill="#9BADB7" />
<rect x="83" y="13" width="1" height="1" fill="#9BADB7" />
<rect x="51" y="14" width="1" height="1" fill="#9BADB7" />
<rect x="82" y="14" width="1" height="1" fill="#9BADB7" />
<rect x="50" y="15" width="1" height="1" fill="#9BADB7" />
<rect x="81" y="15" width="1" height="1" fill="#9BADB7" />
<rect x="49" y="16" width="1" height="1" fill="#9BADB7" />
<rect x="50" y="16" width="1" height="1" fill="#9BADB7" />
<rect x="51" y="16" width="1" height="1" fill="#9BADB7" />
<rect x="52" y="16" width="1" height="1" fill="#9BADB7" />
<rect x="81" y="16" width="1" height="1" fill="#9BADB7" />
<rect x="82" y="16" width="1" height="1" fill="#9BADB7" />
<rect x="83" y="16" width="1" height="1" fill="#9BADB7" />
<rect x="84" y="16" width="1" height="1" fill="#9BADB7" />
<rect x="14" y="18" width="1" height="1" fill="#000000" />
<rect x="15" y="18" width="1" height="1" fill="#000000" />
<rect x="16" y="18" width="1" height="1" fill="#000000" />
<rect x="17" y="18" width="1" height="1" fill="#000000" />
<rect x="46" y="18" width="1" height="1" fill="#000000" />
<rect x="47" y="18" width="1" height="1" fill="#000000" />
<rect x="48" y="18" width="1" height="1" fill="#000000" />
<rect x="49" y="18" width="1" height="1" fill="#000000" />
<rect x="78" y="18" width="1" height="1" fill="#000000" />
<rect x="79" y="18" width="1" height="1" fill="#000000" />
<rect x="80" y="18" width="1" height="1" fill="#000000" />
<rect x="81" y="18" width="1" height="1" fill="#000000" />
<rect x="110" y="18" width="1" height="1" fill="#000000" />
<rect x="111" y="18" width="1" height="1" fill="#000000" />
<rect x="112" y="18" width="1" height="1" fill="#000000" />
<rect x="113" y="18" width="1" height="1" fill="#000000" />
<rect x="14" y="19" width="1" height="1" fill="#000000" />
<rect x="15" y="19" width="1" height="1" fill="#000000" />
<rect x="16" y="19" width="1" height="1" fill="#000000" />
<rect x="17" y="19" width="1" height="1" fill="#000000" />
<rect x="46" y="19" width="1" height="1" fill="#000000" />
<rect x="47" y="19" width="1" height="1" fill="#000000" />
<rect x="48" y="19" width="1" height="1" fill="#000000" />
<rect x="49" y="19" width="1" height="1" fill="#000000" />
<rect x="78" y="19" width="1" height="1" fill="#000000" />
<rect x="79" y="19" width="1" height="1" fill="#000000" />
<rect x="80" y="19" width="1" height="1" fill="#000000" />
<rect x="81" y="19" width="1" height="1" fill="#000000" />
<rect x="110" y="19" width="1" height="1" fill="#000000" />
<rect x="111" y="19" width="1" height="1" fill="#000000" />
<rect x="112" y="19" width="1" height="1" fill="#000000" />
<rect x="113" y="19" width="1" height="1" fill="#000000" />
<rect x="12" y="20" width="1" height="1" fill="#000000" />
<rect x="13" y="20" width="1" height="1" fill="#000000" />
<rect x="14" y="20" width="1" height="1" fill="#000000" />
<rect x="15" y="20" width="1" height="1" fill="#000000" />
<rect x="16" y="20" width="1" height="1" fill="#000000" />
<rect x="17" y="20" width="1" height="1" fill="#000000" />
<rect x="18" y="20" width="1" height="1" fill="#000000" />
<rect x="19" y="20" width="1" height="1" fill="#000000" />
<rect x="39" y="20" width="1" height="1" fill="#000000" />
<rect x="44" y="20" width="1" height="1" fill="#000000" />
<rect x="45" y="20" width="1" height="1" fill="#000000" />
<rect x="46" y="20" width="1" height="1" fill="#000000" />
<rect x="47" y="20" width="1" height="1" fill="#000000" />
<rect x="48" y="20" width="1" height="1" fill="#000000" />
<rect x="49" y="20" width="1" height="1" fill="#000000" />
<rect x="50" y="20" width="1" height="1" fill="#000000" />
<rect x="51" y="20" width="1" height="1" fill="#000000" />
<rect x="56" y="20" width="1" height="1" fill="#000000" />
<rect x="71" y="20" width="1" height="1" fill="#000000" />
<rect x="76" y="20" width="1" height="1" fill="#000000" />
<rect x="77" y="20" width="1" height="1" fill="#000000" />
<rect x="78" y="20" width="1" height="1" fill="#000000" />
<rect x="79" y="20" width="1" height="1" fill="#000000" />
<rect x="80" y="20" width="1" height="1" fill="#000000" />
<rect x="81" y="20" width="1" height="1" fill="#000000" />
<rect x="82" y="20" width="1" height="1" fill="#000000" />
<rect x="83" y="20" width="1" height="1" fill="#000000" />
<rect x="88" y="20" width="1" height="1" fill="#000000" />
<rect x="108" y="20" width="1" height="1" fill="#000000" />
<rect x="109" y="20" width="1" height="1" fill="#000000" />
<rect x="110" y="20" width="1" height="1" fill="#000000" />
<rect x="111" y="20" width="1" height="1" fill="#000000" />
<rect x="112" y="20" width="1" height="1" fill="#000000" />
<rect x="113" y="20" width="1" height="1" fill="#000000" />
<rect x="114" y="20" width="1" height="1" fill="#000000" />
<rect x="115" y="20" width="1" height="1" fill="#000000" />
<rect x="12" y="21" width="1" height="1" fill="#000000" />
<rect x="13" y="21" width="1" height="1" fill="#000000" />
<rect x="14" y="21" width="1" height="1" fill="#000000" />
<rect x="15" y="21" width="1" height="1" fill="#000000" />
<rect x="16" y="21" width="1" height="1" fill="#000000" />
<rect x="17" y="21" width="1" height="1" fill="#000000" />
<rect x="18" y="21" width="1" height="1" fill="#000000" />
<rect x="19" y="21" width="1" height="1" fill="#000000" />
<rect x="38" y="21" width="1" height="1" fill="#000000" />
<rect x="39" y="21" width="1" height="1" fill="#000000" />
<rect x="40" y="21" width="1" height="1" fill="#000000" />
<rect x="44" y="21" width="1" height="1" fill="#000000" />
<rect x="45" y="21" width="1" height="1" fill="#000000" />
<rect x="46" y="21" width="1" height="1" fill="#000000" />
<rect x="47" y="21" width="1" height="1" fill="#000000" />
<rect x="48" y="21" width="1" height="1" fill="#000000" />
<rect x="49" y="21" width="1" height="1" fill="#000000" />
<rect x="50" y="21" width="1" height="1" fill="#000000" />
<rect x="51" y="21" width="1" height="1" fill="#000000" />
<rect x="55" y="21" width="1" height="1" fill="#000000" />
<rect x="56" y="21" width="1" height="1" fill="#000000" />
<rect x="57" y="21" width="1" height="1" fill="#000000" />
<rect x="70" y="21" width="1" height="1" fill="#000000" />
<rect x="71" y="21" width="1" height="1" fill="#000000" />
<rect x="72" y="21" width="1" height="1" fill="#000000" />
<rect x="76" y="21" width="1" height="1" fill="#000000" />
<rect x="77" y="21" width="1" height="1" fill="#000000" />
<rect x="78" y="21" width="1" height="1" fill="#000000" />
<rect x="79" y="21" width="1" height="1" fill="#000000" />
<rect x="80" y="21" width="1" height="1" fill="#000000" />
<rect x="81" y="21" width="1" height="1" fill="#000000" />
<rect x="82" y="21" width="1" height="1" fill="#000000" />
<rect x="83" y="21" width="1" height="1" fill="#000000" />
<rect x="87" y="21" width="1" height="1" fill="#000000" />
<rect x="88" y="21" width="1" height="1" fill="#000000" />
<rect x="89" y="21" width="1" height="1" fill="#000000" />
<rect x="108" y="21" width="1" height="1" fill="#000000" />
<rect x="109" y="21" width="1" height="1" fill="#000000" />
<rect x="110" y="21" width="1" height="1" fill="#000000" />
<rect x="111" y="21" width="1" height="1" fill="#000000" />
<rect x="112" y="21" width="1" height="1" fill="#000000" />
<rect x="113" y="21" width="1" height="1" fill="#000000" />
<rect x="114" y="21" width="1" height="1" fill="#000000" />
<rect x="115" y="21" width="1" height="1" fill="#000000" />
<rect x="12" y="22" width="1" height="1" fill="#000000" />
<rect x="13" y="22" width="1" height="1" fill="#000000" />
<rect x="14" y="22" width="1" height="1" fill="#000000" />
<rect x="15" y="22" width="1" height="1" fill="#000000" />
<rect x="16" y="22" width="1" height="1" fill="#000000" />
<rect x="17" y="22" width="1" height="1" fill="#000000" />
<rect x="18" y="22" width="1" height="1" fill="#000000" />
<rect x="19" y="22" width="1" height="1" fill="#000000" />
<rect x="39" y="22" width="1" height="1" fill="#000000" />
<rect x="40" y="22" width="1" height="1" fill="#000000" />
<rect x="41" y="22" width="1" height="1" fill="#000000" />
<rect x="44" y="22" width="1" height="1" fill="#000000" />
<rect x="45" y="22" width="1" height="1" fill="#000000" />
<rect x="46" y="22" width="1" height="1" fill="#000000" />
<rect x="47" y="22" width="1" height="1" fill="#000000" />
<rect x="48" y="22" width="1" height="1" fill="#000000" />
<rect x="49" y="22" width="1" height="1" fill="#000000" />
<rect x="50" y="22" width="1" height="1" fill="#000000" />
<rect x="51" y="22" width="1" height="1" fill="#000000" />
<rect x="54" y="22" width="1" height="1" fill="#000000" />
<rect x="55" y="22" width="1" height="1" fill="#000000" />
<rect x="56" y="22" width="1" height="1" fill="#000000" />
<rect x="71" y="22" width="1" height="1" fill="#000000" />
<rect x="72" y="22" width="1" height="1" fill="#000000" />
<rect x="73" y="22" width="1" height="1" fill="#000000" />
<rect x="76" y="22" width="1" height="1" fill="#000000" />
<rect x="77" y="22" width="1" height="1" fill="#000000" />
<rect x="78" y="22" width="1" height="1" fill="#000000" />
<rect x="79" y="22" width="1" height="1" fill="#000000" />
<rect x="80" y="22" width="1" height="1" fill="#000000" />
<rect x="81" y="22" width="1" height="1" fill="#000000" />
<rect x="82" y="22" width="1" height="1" fill="#000000" />
<rect x="83" y="22" width="1" height="1" fill="#000000" />
<rect x="86" y="22" width="1" height="1" fill="#000000" />
<rect x="87" y="22" width="1" height="1" fill="#000000" />
<rect x="88" y="22" width="1" height="1" fill="#000000" />
<rect x="108" y="22" width="1" height="1" fill="#000000" />
<rect x="109" y="22" width="1" height="1" fill="#000000" />
<rect x="110" y="22" width="1" height="1" fill="#000000" />
<rect x="111" y="22" width="1" height="1" fill="#000000" />
<rect x="112" y="22" width="1" height="1" fill="#000000" />
<rect x="113" y="22" width="1" height="1" fill="#000000" />
<rect x="114" y="22" width="1" height="1" fill="#000000" />
<rect x="115" y="22" width="1" height="1" fill="#000000" />
<rect x="12" y="23" width="1" height="1" fill="#000000" />
<rect x="13" y="23" width="1" height="1" fill="#000000" />
<rect x="14" y="23" width="1" height="1" fill="#000000" />
<rect x="15" y="23" width="1" height="1" fill="#000000" />
<rect x="16" y="23" width="1" height="1" fill="#000000" />
<rect x="17" y="23" width="1" height="1" fill="#000000" />
<rect x="18" y="23" width="1" height="1" fill="#000000" />
<rect x="19" y="23" width="1" height="1" fill="#000000" />
<rect x="40" y="23" width="1" height="1" fill="#000000" />
<rect x="41" y="23" width="1" height="1" fill="#000000" />
<rect x="42" y="23" width="1" height="1" fill="#000000" />
<rect x="44" y="23" width="1" height="1" fill="#000000" />
<rect x="45" y="23" width="1" height="1" fill="#000000" />
<rect x="46" y="23" width="1" height="1" fill="#000000" />
<rect x="47" y="23" width="1" height="1" fill="#000000" />
<rect x="48" y="23" width="1" height="1" fill="#000000" />
<rect x="49" y="23" width="1" height="1" fill="#000000" />
<rect x="50" y="23" width="1" height="1" fill="#000000" />
<rect x="51" y="23" width="1" height="1" fill="#000000" />
<rect x="53" y="23" width="1" height="1" fill="#000000" />
<rect x="54" y="23" width="1" height="1" fill="#000000" />
<rect x="55" y="23" width="1" height="1" fill="#000000" />
<rect x="72" y="23" width="1" height="1" fill="#000000" />
<rect x="73" y="23" width="1" height="1" fill="#000000" />
<rect x="74" y="23" width="1" height="1" fill="#000000" />
<rect x="76" y="23" width="1" height="1" fill="#000000" />
<rect x="77" y="23" width="1" height="1" fill="#000000" />
<rect x="78" y="23" width="1" height="1" fill="#000000" />
<rect x="79" y="23" width="1" height="1" fill="#000000" />
<rect x="80" y="23" width="1" height="1" fill="#000000" />
<rect x="81" y="23" width="1" height="1" fill="#000000" />
<rect x="82" y="23" width="1" height="1" fill="#000000" />
<rect x="83" y="23" width="1" height="1" fill="#000000" />
<rect x="85" y="23" width="1" height="1" fill="#000000" />
<rect x="86" y="23" width="1" height="1" fill="#000000" />
<rect x="87" y="23" width="1" height="1" fill="#000000" />
<rect x="108" y="23" width="1" height="1" fill="#000000" />
<rect x="109" y="23" width="1" height="1" fill="#000000" />
<rect x="110" y="23" width="1" height="1" fill="#000000" />
<rect x="111" y="23" width="1" height="1" fill="#000000" />
<rect x="112" y="23" width="1" height="1" fill="#000000" />
<rect x="113" y="23" width="1" height="1" fill="#000000" />
<rect x="114" y="23" width="1" height="1" fill="#000000" />
<rect x="115" y="23" width="1" height="1" fill="#000000" />
<rect x="12" y="24" width="1" height="1" fill="#000000" />
<rect x="13" y="24" width="1" height="1" fill="#000000" />
<rect x="14" y="24" width="1" height="1" fill="#000000" />
<rect x="15" y="24" width="1" height="1" fill="#000000" />
<rect x="16" y="24" width="1" height="1" fill="#000000" />
<rect x="17" y="24" width="1" height="1" fill="#000000" />
<rect x="18" y="24" width="1" height="1" fill="#000000" />
<rect x="19" y="24" width="1" height="1" fill="#000000" />
<rect x="41" y="24" width="1" height="1" fill="#000000" />
<rect x="42" y="24" width="1" height="1" fill="#000000" />
<rect x="43" y="24" width="1" height="1" fill="#000000" />
<rect x="44" y="24" width="1" height="1" fill="#000000" />
<rect x="45" y="24" width="1" height="1" fill="#000000" />
<rect x="46" y="24" width="1" height="1" fill="#000000" />
<rect x="47" y="24" width="1" height="1" fill="#000000" />
<rect x="48" y="24" width="1" height="1" fill="#000000" />
<rect x="49" y="24" width="1" height="1" fill="#000000" />
<rect x="50" y="24" width="1" height="1" fill="#000000" />
<rect x="51" y="24" width="1" height="1" fill="#000000" />
<rect x="52" y="24" width="1" height="1" fill="#000000" />
<rect x="53" y="24" width="1" height="1" fill="#000000" />
<rect x="54" y="24" width="1" height="1" fill="#000000" />
<rect x="73" y="24" width="1" height="1" fill="#000000" />
<rect x="74" y="24" width="1" height="1" fill="#000000" />
<rect x="75" y="24" width="1" height="1" fill="#000000" />
<rect x="76" y="24" width="1" height="1" fill="#000000" />
<rect x="77" y="24" width="1" height="1" fill="#000000" />
<rect x="78" y="24" width="1" height="1" fill="#000000" />
<rect x="79" y="24" width="1" height="1" fill="#000000" />
<rect x="80" y="24" width="1" height="1" fill="#000000" />
<rect x="81" y="24" width="1" height="1" fill="#000000" />
<rect x="82" y="24" width="1" height="1" fill="#000000" />
<rect x="83" y="24" width="1" height="1" fill="#000000" />
<rect x="84" y="24" width="1" height="1" fill="#000000" />
<rect x="85" y="24" width="1" height="1" fill="#000000" />
<rect x="86" y="24" width="1" height="1" fill="#000000" />
<rect x="108" y="24" width="1" height="1" fill="#000000" />
<rect x="109" y="24" width="1" height="1" fill="#000000" />
<rect x="110" y="24" width="1" height="1" fill="#000000" />
<rect x="111" y="24" width="1" height="1" fill="#000000" />
<rect x="112" y="24" width="1" height="1" fill="#000000" />
<rect x="113" y="24" width="1" height="1" fill="#000000" />
<rect x="114" y="24" width="1" height="1" fill="#000000" />
<rect x="115" y="24" width="1" height="1" fill="#000000" />
<rect x="12" y="25" width="1" height="1" fill="#000000" />
<rect x="13" y="25" width="1" height="1" fill="#000000" />
<rect x="14" y="25" width="1" height="1" fill="#000000" />
<rect x="15" y="25" width="1" height="1" fill="#000000" />
<rect x="16" y="25" width="1" height="1" fill="#000000" />
<rect x="17" y="25" width="1" height="1" fill="#000000" />
<rect x="18" y="25" width="1" height="1" fill="#000000" />
<rect x="19" y="25" width="1" height="1" fill="#000000" />
<rect x="42" y="25" width="1" height="1" fill="#000000" />
<rect x="43" y="25" width="1" height="1" fill="#000000" />
<rect x="44" y="25" width="1" height="1" fill="#000000" />
<rect x="45" y="25" width="1" height="1" fill="#000000" />
<rect x="46" y="25" width="1" height="1" fill="#000000" />
<rect x="47" y="25" width="1" height="1" fill="#000000" />
<rect x="48" y="25" width="1" height="1" fill="#000000" />
<rect x="49" y="25" width="1" height="1" fill="#000000" />
<rect x="50" y="25" width="1" height="1" fill="#000000" />
<rect x="51" y="25" width="1" height="1" fill="#000000" />
<rect x="52" y="25" width="1" height="1" fill="#000000" />
<rect x="53" y="25" width="1" height="1" fill="#000000" />
<rect x="74" y="25" width="1" height="1" fill="#000000" />
<rect x="75" y="25" width="1" height="1" fill="#000000" />
<rect x="76" y="25" width="1" height="1" fill="#000000" />
<rect x="77" y="25" width="1" height="1" fill="#000000" />
<rect x="78" y="25" width="1" height="1" fill="#000000" />
<rect x="79" y="25" width="1" height="1" fill="#000000" />
<rect x="80" y="25" width="1" height="1" fill="#000000" />
<rect x="81" y="25" width="1" height="1" fill="#000000" />
<rect x="82" y="25" width="1" height="1" fill="#000000" />
<rect x="83" y="25" width="1" height="1" fill="#000000" />
<rect x="84" y="25" width="1" height="1" fill="#000000" />
<rect x="85" y="25" width="1" height="1" fill="#000000" />
<rect x="108" y="25" width="1" height="1" fill="#000000" />
<rect x="109" y="25" width="1" height="1" fill="#000000" />
<rect x="110" y="25" width="1" height="1" fill="#000000" />
<rect x="111" y="25" width="1" height="1" fill="#000000" />
<rect x="112" y="25" width="1" height="1" fill="#000000" />
<rect x="113" y="25" width="1" height="1" fill="#000000" />
<rect x="114" y="25" width="1" height="1" fill="#000000" />
<rect x="115" y="25" width="1" height="1" fill="#000000" />
<rect x="14" y="26" width="1" height="1" fill="#000000" />
<rect x="15" y="26" width="1" height="1" fill="#000000" />
<rect x="16" y="26" width="1" height="1" fill="#000000" />
<rect x="17" y="26" width="1" height="1" fill="#000000" />
<rect x="43" y="26" width="1" height="1" fill="#000000" />
<rect x="44" y="26" width="1" height="1" fill="#000000" />
<rect x="45" y="26" width="1" height="1" fill="#000000" />
<rect x="46" y="26" width="1" height="1" fill="#000000" />
<rect x="47" y="26" width="1" height="1" fill="#000000" />
<rect x="48" y="26" width="1" height="1" fill="#000000" />
<rect x="49" y="26" width="1" height="1" fill="#000000" />
<rect x="50" y="26" width="1" height="1" fill="#000000" />
<rect x="51" y="26" width="1" height="1" fill="#000000" />
<rect x="52" y="26" width="1" height="1" fill="#000000" />
<rect x="75" y="26" width="1" height="1" fill="#000000" />
<rect x="76" y="26" width="1" height="1" fill="#000000" />
<rect x="77" y="26" width="1" height="1" fill="#000000" />
<rect x="78" y="26" width="1" height="1" fill="#000000" />
<rect x="79" y="26" width="1" height="1" fill="#000000" />
<rect x="80" y="26" width="1" height="1" fill="#000000" />
<rect x="81" y="26" width="1" height="1" fill="#000000" />
<rect x="82" y="26" width="1" height="1" fill="#000000" />
<rect x="83" y="26" width="1" height="1" fill="#000000" />
<rect x="84" y="26" width="1" height="1" fill="#000000" />
<rect x="110" y="26" width="1" height="1" fill="#000000" />
<rect x="111" y="26" width="1" height="1" fill="#000000" />
<rect x="112" y="26" width="1" height="1" fill="#000000" />
<rect x="113" y="26" width="1" height="1" fill="#000000" />
<rect x="12" y="27" width="1" height="1" fill="#000000" />
<rect x="13" y="27" width="1" height="1" fill="#000000" />
<rect x="14" y="27" width="1" height="1" fill="#000000" />
<rect x="15" y="27" width="1" height="1" fill="#000000" />
<rect x="16" y="27" width="1" height="1" fill="#000000" />
<rect x="17" y="27" width="1" height="1" fill="#000000" />
<rect x="18" y="27" width="1" height="1" fill="#000000" />
<rect x="19" y="27" width="1" height="1" fill="#000000" />
<rect x="44" y="27" width="1" height="1" fill="#000000" />
<rect x="45" y="27" width="1" height="1" fill="#000000" />
<rect x="46" y="27" width="1" height="1" fill="#000000" />
<rect x="47" y="27" width="1" height="1" fill="#000000" />
<rect x="48" y="27" width="1" height="1" fill="#000000" />
<rect x="49" y="27" width="1" height="1" fill="#000000" />
<rect x="50" y="27" width="1" height="1" fill="#000000" />
<rect x="51" y="27" width="1" height="1" fill="#000000" />
<rect x="76" y="27" width="1" height="1" fill="#000000" />
<rect x="77" y="27" width="1" height="1" fill="#000000" />
<rect x="78" y="27" width="1" height="1" fill="#000000" />
<rect x="79" y="27" width="1" height="1" fill="#000000" />
<rect x="80" y="27" width="1" height="1" fill="#000000" />
<rect x="81" y="27" width="1" height="1" fill="#000000" />
<rect x="82" y="27" width="1" height="1" fill="#000000" />
<rect x="83" y="27" width="1" height="1" fill="#000000" />
<rect x="108" y="27" width="1" height="1" fill="#000000" />
<rect x="109" y="27" width="1" height="1" fill="#000000" />
<rect x="110" y="27" width="1" height="1" fill="#000000" />
<rect x="111" y="27" width="1" height="1" fill="#000000" />
<rect x="112" y="27" width="1" height="1" fill="#000000" />
<rect x="113" y="27" width="1" height="1" fill="#000000" />
<rect x="114" y="27" width="1" height="1" fill="#000000" />
<rect x="115" y="27" width="1" height="1" fill="#000000" />
<rect x="12" y="28" width="1" height="1" fill="#000000" />
<rect x="13" y="28" width="1" height="1" fill="#000000" />
<rect x="14" y="28" width="1" height="1" fill="#000000" />
<rect x="15" y="28" width="1" height="1" fill="#000000" />
<rect x="16" y="28" width="1" height="1" fill="#000000" />
<rect x="17" y="28" width="1" height="1" fill="#000000" />
<rect x="18" y="28" width="1" height="1" fill="#000000" />
<rect x="19" y="28" width="1" height="1" fill="#000000" />
<rect x="45" y="28" width="1" height="1" fill="#000000" />
<rect x="46" y="28" width="1" height="1" fill="#000000" />
<rect x="47" y="28" width="1" height="1" fill="#000000" />
<rect x="48" y="28" width="1" height="1" fill="#000000" />
<rect x="49" y="28" width="1" height="1" fill="#000000" />
<rect x="50" y="28" width="1" height="1" fill="#000000" />
<rect x="77" y="28" width="1" height="1" fill="#000000" />
<rect x="78" y="28" width="1" height="1" fill="#000000" />
<rect x="79" y="28" width="1" height="1" fill="#000000" />
<rect x="80" y="28" width="1" height="1" fill="#000000" />
<rect x="81" y="28" width="1" height="1" fill="#000000" />
<rect x="82" y="28" width="1" height="1" fill="#000000" />
<rect x="108" y="28" width="1" height="1" fill="#000000" />
<rect x="109" y="28" width="1" height="1" fill="#000000" />
<rect x="110" y="28" width="1" height="1" fill="#000000" />
<rect x="111" y="28" width="1" height="1" fill="#000000" />
<rect x="112" y="28" width="1" height="1" fill="#000000" />
<rect x="113" y="28" width="1" height="1" fill="#000000" />
<rect x="114" y="28" width="1" height="1" fill="#000000" />
<rect x="115" y="28" width="1" height="1" fill="#000000" />
<rect x="12" y="29" width="1" height="1" fill="#000000" />
<rect x="13" y="29" width="1" height="1" fill="#000000" />
<rect x="14" y="29" width="1" height="1" fill="#000000" />
<rect x="15" y="29" width="1" height="1" fill="#000000" />
<rect x="16" y="29" width="1" height="1" fill="#000000" />
<rect x="17" y="29" width="1" height="1" fill="#000000" />
<rect x="18" y="29" width="1" height="1" fill="#000000" />
<rect x="19" y="29" width="1" height="1" fill="#000000" />
<rect x="46" y="29" width="1" height="1" fill="#000000" />
<rect x="47" y="29" width="1" height="1" fill="#000000" />
<rect x="48" y="29" width="1" height="1" fill="#000000" />
<rect x="49" y="29" width="1" height="1" fill="#000000" />
<rect x="78" y="29" width="1" height="1" fill="#000000" />
<rect x="79" y="29" width="1" height="1" fill="#000000" />
<rect x="80" y="29" width="1" height="1" fill="#000000" />
<rect x="81" y="29" width="1" height="1" fill="#000000" />
<rect x="108" y="29" width="1" height="1" fill="#000000" />
<rect x="109" y="29" width="1" height="1" fill="#000000" />
<rect x="110" y="29" width="1" height="1" fill="#000000" />
<rect x="111" y="29" width="1" height="1" fill="#000000" />
<rect x="112" y="29" width="1" height="1" fill="#000000" />
<rect x="113" y="29" width="1" height="1" fill="#000000" />
<rect x="114" y="29" width="1" height="1" fill="#000000" />
<rect x="115" y="29" width="1" height="1" fill="#000000" />
<rect x="12" y="30" width="1" height="1" fill="#000000" />
<rect x="13" y="30" width="1" height="1" fill="#000000" />
<rect x="14" y="30" width="1" height="1" fill="#000000" />
<rect x="15" y="30" width="1" height="1" fill="#000000" />
<rect x="16" y="30" width="1" height="1" fill="#000000" />
<rect x="17" y="30" width="1" height="1" fill="#000000" />
<rect x="18" y="30" width="1" height="1" fill="#000000" />
<rect x="19" y="30" width="1" height="1" fill="#000000" />
<rect x="46" y="30" width="1" height="1" fill="#000000" />
<rect x="47" y="30" width="1" height="1" fill="#000000" />
<rect x="48" y="30" width="1" height="1" fill="#000000" />
<rect x="49" y="30" width="1" height="1" fill="#000000" />
<rect x="78" y="30" width="1" height="1" fill="#000000" />
<rect x="79" y="30" width="1" height="1" fill="#000000" />
<rect x="80" y="30" width="1" height="1" fill="#000000" />
<rect x="81" y="30" width="1" height="1" fill="#000000" />
<rect x="108" y="30" width="1" height="1" fill="#000000" />
<rect x="109" y="30" width="1" height="1" fill="#000000" />
<rect x="110" y="30" width="1" height="1" fill="#000000" />
<rect x="111" y="30" width="1" height="1" fill="#000000" />
<rect x="112" y="30" width="1" height="1" fill="#000000" />
<rect x="113" y="30" width="1" height="1" fill="#000000" />
<rect x="114" y="30" width="1" height="1" fill="#000000" />
<rect x="115" y="30" width="1" height="1" fill="#000000" />
<rect x="12" y="31" width="1" height="1" fill="#000000" />
<rect x="13" y="31" width="1" height="1" fill="#000000" />
<rect x="14" y="31" width="1" height="1" fill="#000000" />
<rect x="15" y="31" width="1" height="1" fill="#000000" />
<rect x="16" y="31" width="1" height="1" fill="#000000" />
<rect x="17" y="31" width="1" height="1" fill="#000000" />
<rect x="18" y="31" width="1" height="1" fill="#000000" />
<rect x="19" y="31" width="1" height="1" fill="#000000" />
<rect x="46" y="31" width="1" height="1" fill="#000000" />
<rect x="47" y="31" width="1" height="1" fill="#000000" />
<rect x="48" y="31" width="1" height="1" fill="#000000" />
<rect x="49" y="31" width="1" height="1" fill="#000000" />
<rect x="78" y="31" width="1" height="1" fill="#000000" />
<rect x="79" y="31" width="1" height="1" fill="#000000" />
<rect x="80" y="31" width="1" height="1" fill="#000000" />
<rect x="81" y="31" width="1" height="1" fill="#000000" />
<rect x="108" y="31" width="1" height="1" fill="#000000" />
<rect x="109" y="31" width="1" height="1" fill="#000000" />
<rect x="110" y="31" width="1" height="1" fill="#000000" />
<rect x="111" y="31" width="1" height="1" fill="#000000" />
<rect x="112" y="31" width="1" height="1" fill="#000000" />
<rect x="113" y="31" width="1" height="1" fill="#000000" />
<rect x="114" y="31" width="1" height="1" fill="#000000" />
<rect x="115" y="31" width="1" height="1" fill="#000000" />
<rect x="12" y="32" width="1" height="1" fill="#000000" />
<rect x="13" y="32" width="1" height="1" fill="#000000" />
<rect x="14" y="32" width="1" height="1" fill="#000000" />
<rect x="15" y="32" width="1" height="1" fill="#000000" />
<rect x="16" y="32" width="1" height="1" fill="#000000" />
<rect x="17" y="32" width="1" height="1" fill="#000000" />
<rect x="18" y="32" width="1" height="1" fill="#000000" />
<rect x="19" y="32" width="1" height="1" fill="#000000" />
<rect x="46" y="32" width="1" height="1" fill="#000000" />
<rect x="47" y="32" width="1" height="1" fill="#000000" />
<rect x="48" y="32" width="1" height="1" fill="#000000" />
<rect x="49" y="32" width="1" height="1" fill="#000000" />
<rect x="78" y="32" width="1" height="1" fill="#000000" />
<rect x="79" y="32" width="1" height="1" fill="#000000" />
<rect x="80" y="32" width="1" height="1" fill="#000000" />
<rect x="81" y="32" width="1" height="1" fill="#000000" />
<rect x="108" y="32" width="1" height="1" fill="#000000" />
<rect x="109" y="32" width="1" height="1" fill="#000000" />
<rect x="110" y="32" width="1" height="1" fill="#000000" />
<rect x="111" y="32" width="1" height="1" fill="#000000" />
<rect x="112" y="32" width="1" height="1" fill="#000000" />
<rect x="113" y="32" width="1" height="1" fill="#000000" />
<rect x="114" y="32" width="1" height="1" fill="#000000" />
<rect x="115" y="32" width="1" height="1" fill="#000000" />
<rect x="12" y="33" width="1" height="1" fill="#000000" />
<rect x="13" y="33" width="1" height="1" fill="#000000" />
<rect x="14" y="33" width="1" height="1" fill="#000000" />
<rect x="15" y="33" width="1" height="1" fill="#000000" />
<rect x="16" y="33" width="1" height="1" fill="#000000" />
<rect x="17" y="33" width="1" height="1" fill="#000000" />
<rect x="18" y="33" width="1" height="1" fill="#000000" />
<rect x="19" y="33" width="1" height="1" fill="#000000" />
<rect x="46" y="33" width="1" height="1" fill="#000000" />
<rect x="47" y="33" width="1" height="1" fill="#000000" />
<rect x="48" y="33" width="1" height="1" fill="#000000" />
<rect x="49" y="33" width="1" height="1" fill="#000000" />
<rect x="78" y="33" width="1" height="1" fill="#000000" />
<rect x="79" y="33" width="1" height="1" fill="#000000" />
<rect x="80" y="33" width="1" height="1" fill="#000000" />
<rect x="81" y="33" width="1" height="1" fill="#000000" />
<rect x="108" y="33" width="1" height="1" fill="#000000" />
<rect x="109" y="33" width="1" height="1" fill="#000000" />
<rect x="110" y="33" width="1" height="1" fill="#000000" />
<rect x="111" y="33" width="1" height="1" fill="#000000" />
<rect x="112" y="33" width="1" height="1" fill="#000000" />
<rect x="113" y="33" width="1" height="1" fill="#000000" />
<rect x="114" y="33" width="1" height="1" fill="#000000" />
<rect x="115" y="33" width="1" height="1" fill="#000000" />
<rect x="12" y="34" width="1" height="1" fill="#000000" />
<rect x="13" y="34" width="1" height="1" fill="#000000" />
<rect x="14" y="34" width="1" height="1" fill="#000000" />
<rect x="15" y="34" width="1" height="1" fill="#000000" />
<rect x="16" y="34" width="1" height="1" fill="#000000" />
<rect x="17" y="34" width="1" height="1" fill="#000000" />
<rect x="18" y="34" width="1" height="1" fill="#000000" />
<rect x="19" y="34" width="1" height="1" fill="#000000" />
<rect x="46" y="34" width="1" height="1" fill="#000000" />
<rect x="47" y="34" width="1" height="1" fill="#000000" />
<rect x="48" y="34" width="1" height="1" fill="#000000" />
<rect x="49" y="34" width="1" height="1" fill="#000000" />
<rect x="78" y="34" width="1" height="1" fill="#000000" />
<rect x="79" y="34" width="1" height="1" fill="#000000" />
<rect x="80" y="34" width="1" height="1" fill="#000000" />
<rect x="81" y="34" width="1" height="1" fill="#000000" />
<rect x="108" y="34" width="1" height="1" fill="#000000" />
<rect x="109" y="34" width="1" height="1" fill="#000000" />
<rect x="110" y="34" width="1" height="1" fill="#000000" />
<rect x="111" y="34" width="1" height="1" fill="#000000" />
<rect x="112" y="34" width="1" height="1" fill="#000000" />
<rect x="113" y="34" width="1" height="1" fill="#000000" />
<rect x="114" y="34" width="1" height="1" fill="#000000" />
<rect x="115" y="34" width="1" height="1" fill="#000000" />
<rect x="12" y="35" width="1" height="1" fill="#000000" />
<rect x="13" y="35" width="1" height="1" fill="#000000" />
<rect x="14" y="35" width="1" height="1" fill="#000000" />
<rect x="15" y="35" width="1" height="1" fill="#000000" />
<rect x="16" y="35" width="1" height="1" fill="#000000" />
<rect x="17" y="35" width="1" height="1" fill="#000000" />
<rect x="18" y="35" width="1" height="1" fill="#000000" />
<rect x="19" y="35" width="1" height="1" fill="#000000" />
<rect x="46" y="35" width="1" height="1" fill="#000000" />
<rect x="47" y="35" width="1" height="1" fill="#000000" />
<rect x="48" y="35" width="1" height="1" fill="#000000" />
<rect x="49" y="35" width="1" height="1" fill="#000000" />
<rect x="78" y="35" width="1" height="1" fill="#000000" />
<rect x="79" y="35" width="1" height="1" fill="#000000" />
<rect x="80" y="35" width="1" height="1" fill="#000000" />
<rect x="81" y="35" width="1" height="1" fill="#000000" />
<rect x="108" y="35" width="1" height="1" fill="#000000" />
<rect x="109" y="35" width="1" height="1" fill="#000000" />
<rect x="110" y="35" width="1" height="1" fill="#000000" />
<rect x="111" y="35" width="1" height="1" fill="#000000" />
<rect x="112" y="35" width="1" height="1" fill="#000000" />
<rect x="113" y="35" width="1" height="1" fill="#000000" />
<rect x="114" y="35" width="1" height="1" fill="#000000" />
<rect x="115" y="35" width="1" height="1" fill="#000000" />
<rect x="12" y="36" width="1" height="1" fill="#000000" />
<rect x="13" y="36" width="1" height="1" fill="#000000" />
<rect x="14" y="36" width="1" height="1" fill="#000000" />
<rect x="15" y="36" width="1" height="1" fill="#000000" />
<rect x="16" y="36" width="1" height="1" fill="#000000" />
<rect x="17" y="36" width="1" height="1" fill="#000000" />
<rect x="18" y="36" width="1" height="1" fill="#000000" />
<rect x="19" y="36" width="1" height="1" fill="#000000" />
<rect x="46" y="36" width="1" height="1" fill="#000000" />
<rect x="47" y="36" width="1" height="1" fill="#000000" />
<rect x="48" y="36" width="1" height="1" fill="#000000" />
<rect x="49" y="36" width="1" height="1" fill="#000000" />
<rect x="78" y="36" width="1" height="1" fill="#000000" />
<rect x="79" y="36" width="1" height="1" fill="#000000" />
<rect x="80" y="36" width="1" height="1" fill="#000000" />
<rect x="81" y="36" width="1" height="1" fill="#000000" />
<rect x="108" y="36" width="1" height="1" fill="#000000" />
<rect x="109" y="36" width="1" height="1" fill="#000000" />
<rect x="110" y="36" width="1" height="1" fill="#000000" />
<rect x="111" y="36" width="1" height="1" fill="#000000" />
<rect x="112" y="36" width="1" height="1" fill="#000000" />
<rect x="113" y="36" width="1" height="1" fill="#000000" />
<rect x="114" y="36" width="1" height="1" fill="#000000" />
<rect x="115" y="36" width="1" height="1" fill="#000000" />
<rect x="14" y="37" width="1" height="1" fill="#000000" />
<rect x="15" y="37" width="1" height="1" fill="#000000" />
<rect x="16" y="37" width="1" height="1" fill="#000000" />
<rect x="17" y="37" width="1" height="1" fill="#000000" />
<rect x="46" y="37" width="1" height="1" fill="#000000" />
<rect x="47" y="37" width="1" height="1" fill="#000000" />
<rect x="48" y="37" width="1" height="1" fill="#000000" />
<rect x="49" y="37" width="1" height="1" fill="#000000" />
<rect x="78" y="37" width="1" height="1" fill="#000000" />
<rect x="79" y="37" width="1" height="1" fill="#000000" />
<rect x="80" y="37" width="1" height="1" fill="#000000" />
<rect x="81" y="37" width="1" height="1" fill="#000000" />
<rect x="110" y="37" width="1" height="1" fill="#000000" />
<rect x="111" y="37" width="1" height="1" fill="#000000" />
<rect x="112" y="37" width="1" height="1" fill="#000000" />
<rect x="113" y="37" width="1" height="1" fill="#000000" />
<rect x="14" y="38" width="1" height="1" fill="#000000" />
<rect x="15" y="38" width="1" height="1" fill="#000000" />
<rect x="16" y="38" width="1" height="1" fill="#000000" />
<rect x="17" y="38" width="1" height="1" fill="#000000" />
<rect x="46" y="38" width="1" height="1" fill="#000000" />
<rect x="47" y="38" width="1" height="1" fill="#000000" />
<rect x="48" y="38" width="1" height="1" fill="#000000" />
<rect x="49" y="38" width="1" height="1" fill="#000000" />
<rect x="78" y="38" width="1" height="1" fill="#000000" />
<rect x="79" y="38" width="1" height="1" fill="#000000" />
<rect x="80" y="38" width="1" height="1" fill="#000000" />
<rect x="81" y="38" width="1" height="1" fill="#000000" />
<rect x="110" y="38" width="1" height="1" fill="#000000" />
<rect x="111" y="38" width="1" height="1" fill="#000000" />
<rect x="112" y="38" width="1" height="1" fill="#000000" />
<rect x="113" y="38" width="1" height="1" fill="#000000" />
<rect x="14" y="39" width="1" height="1" fill="#000000" />
<rect x="15" y="39" width="1" height="1" fill="#000000" />
<rect x="16" y="39" width="1" height="1" fill="#000000" />
<rect x="17" y="39" width="1" height="1" fill="#000000" />
<rect x="46" y="39" width="1" height="1" fill="#000000" />
<rect x="47" y="39" width="1" height="1" fill="#000000" />
<rect x="48" y="39" width="1" height="1" fill="#000000" />
<rect x="49" y="39" width="1" height="1" fill="#000000" />
<rect x="78" y="39" width="1" height="1" fill="#000000" />
<rect x="79" y="39" width="1" height="1" fill="#000000" />
<rect x="80" y="39" width="1" height="1" fill="#000000" />
<rect x="81" y="39" width="1" height="1" fill="#000000" />
<rect x="110" y="39" width="1" height="1" fill="#000000" />
<rect x="111" y="39" width="1" height="1" fill="#000000" />
<rect x="112" y="39" width="1" height="1" fill="#000000" />
<rect x="113" y="39" width="1" height="1" fill="#000000" />
<rect x="14" y="40" width="1" height="1" fill="#000000" />
<rect x="15" y="40" width="1" height="1" fill="#000000" />
<rect x="16" y="40" width="1" height="1" fill="#000000" />
<rect x="17" y="40" width="1" height="1" fill="#000000" />
<rect x="46" y="40" width="1" height="1" fill="#000000" />
<rect x="47" y="40" width="1" height="1" fill="#000000" />
<rect x="48" y="40" width="1" height="1" fill="#000000" />
<rect x="49" y="40" width="1" height="1" fill="#000000" />
<rect x="78" y="40" width="1" height="1" fill="#000000" />
<rect x="79" y="40" width="1" height="1" fill="#000000" />
<rect x="80" y="40" width="1" height="1" fill="#000000" />
<rect x="81" y="40" width="1" height="1" fill="#000000" />
<rect x="110" y="40" width="1" height="1" fill="#000000" />
<rect x="111" y="40" width="1" height="1" fill="#000000" />
<rect x="112" y="40" width="1" height="1" fill="#000000" />
<rect x="113" y="40" width="1" height="1" fill="#000000" />
<rect x="14" y="41" width="1" height="1" fill="#000000" />
<rect x="15" y="41" width="1" height="1" fill="#000000" />
<rect x="16" y="41" width="1" height="1" fill="#000000" />
<rect x="17" y="41" width="1" height="1" fill="#000000" />
<rect x="46" y="41" width="1" height="1" fill="#000000" />
<rect x="47" y="41" width="1" height="1" fill="#000000" />
<rect x="48" y="41" width="1" height="1" fill="#000000" />
<rect x="49" y="41" width="1" height="1" fill="#000000" />
<rect x="78" y="41" width="1" height="1" fill="#000000" />
<rect x="79" y="41" width="1" height="1" fill="#000000" />
<rect x="80" y="41" width="1" height="1" fill="#000000" />
<rect x="81" y="41" width="1" height="1" fill="#000000" />
<rect x="110" y="41" width="1" height="1" fill="#000000" />
<rect x="111" y="41" width="1" height="1" fill="#000000" />
<rect x="112" y="41" width="1" height="1" fill="#000000" />
<rect x="113" y="41" width="1" height="1" fill="#000000" />
<rect x="14" y="42" width="1" height="1" fill="#000000" />
<rect x="15" y="42" width="1" height="1" fill="#000000" />
<rect x="16" y="42" width="1" height="1" fill="#000000" />
<rect x="17" y="42" width="1" height="1" fill="#000000" />
<rect x="46" y="42" width="1" height="1" fill="#000000" />
<rect x="47" y="42" width="1" height="1" fill="#000000" />
<rect x="48" y="42" width="1" height="1" fill="#000000" />
<rect x="49" y="42" width="1" height="1" fill="#000000" />
<rect x="78" y="42" width="1" height="1" fill="#000000" />
<rect x="79" y="42" width="1" height="1" fill="#000000" />
<rect x="80" y="42" width="1" height="1" fill="#000000" />
<rect x="81" y="42" width="1" height="1" fill="#000000" />
<rect x="110" y="42" width="1" height="1" fill="#000000" />
<rect x="111" y="42" width="1" height="1" fill="#000000" />
<rect x="112" y="42" width="1" height="1" fill="#000000" />
<rect x="113" y="42" width="1" height="1" fill="#000000" />
<rect x="14" y="43" width="1" height="1" fill="#000000" />
<rect x="15" y="43" width="1" height="1" fill="#000000" />
<rect x="16" y="43" width="1" height="1" fill="#000000" />
<rect x="17" y="43" width="1" height="1" fill="#000000" />
<rect x="46" y="43" width="1" height="1" fill="#000000" />
<rect x="47" y="43" width="1" height="1" fill="#000000" />
<rect x="48" y="43" width="1" height="1" fill="#000000" />
<rect x="49" y="43" width="1" height="1" fill="#000000" />
<rect x="78" y="43" width="1" height="1" fill="#000000" />
<rect x="79" y="43" width="1" height="1" fill="#000000" />
<rect x="80" y="43" width="1" height="1" fill="#000000" />
<rect x="81" y="43" width="1" height="1" fill="#000000" />
<rect x="110" y="43" width="1" height="1" fill="#000000" />
<rect x="111" y="43" width="1" height="1" fill="#000000" />
<rect x="112" y="43" width="1" height="1" fill="#000000" />
<rect x="113" y="43" width="1" height="1" fill="#000000" />
<rect x="14" y="44" width="1" height="1" fill="#000000" />
<rect x="15" y="44" width="1" height="1" fill="#000000" />
<rect x="16" y="44" width="1" height="1" fill="#000000" />
<rect x="17" y="44" width="1" height="1" fill="#000000" />
<rect x="46" y="44" width="1" height="1" fill="#000000" />
<rect x="47" y="44" width="1" height="1" fill="#000000" />
<rect x="48" y="44" width="1" height="1" fill="#000000" />
<rect x="49" y="44" width="1" height="1" fill="#000000" />
<rect x="78" y="44" width="1" height="1" fill="#000000" />
<rect x="79" y="44" width="1" height="1" fill="#000000" />
<rect x="80" y="44" width="1" height="1" fill="#000000" />
<rect x="81" y="44" width="1" height="1" fill="#000000" />
<rect x="110" y="44" width="1" height="1" fill="#000000" />
<rect x="111" y="44" width="1" height="1" fill="#000000" />
<rect x="112" y="44" width="1" height="1" fill="#000000" />
<rect x="113" y="44" width="1" height="1" fill="#000000" />
<rect x="14" y="45" width="1" height="1" fill="#000000" />
<rect x="15" y="45" width="1" height="1" fill="#000000" />
<rect x="16" y="45" width="1" height="1" fill="#000000" />
<rect x="17" y="45" width="1" height="1" fill="#000000" />
<rect x="46" y="45" width="1" height="1" fill="#000000" />
<rect x="47" y="45" width="1" height="1" fill="#000000" />
<rect x="48" y="45" width="1" height="1" fill="#000000" />
<rect x="49" y="45" width="1" height="1" fill="#000000" />
<rect x="78" y="45" width="1" height="1" fill="#000000" />
<rect x="79" y="45" width="1" height="1" fill="#000000" />
<rect x="80" y="45" width="1" height="1" fill="#000000" />
<rect x="81" y="45" width="1" height="1" fill="#000000" />
<rect x="110" y="45" width="1" height="1" fill="#000000" />
<rect x="111" y="45" width="1" height="1" fill="#000000" />
<rect x="112" y="45" width="1" height="1" fill="#000000" />
<rect x="113" y="45" width="1" height="1" fill="#000000" />
<rect x="14" y="46" width="1" height="1" fill="#000000" />
<rect x="15" y="46" width="1" height="1" fill="#000000" />
<rect x="16" y="46" width="1" height="1" fill="#000000" />
<rect x="17" y="46" width="1" height="1" fill="#000000" />
<rect x="46" y="46" width="1" height="1" fill="#000000" />
<rect x="47" y="46" width="1" height="1" fill="#000000" />
<rect x="48" y="46" width="1" height="1" fill="#000000" />
<rect x="49" y="46" width="1" height="1" fill="#000000" />
<rect x="78" y="46" width="1" height="1" fill="#000000" />
<rect x="79" y="46" width="1" height="1" fill="#000000" />
<rect x="80" y="46" width="1" height="1" fill="#000000" />
<rect x="81" y="46" width="1" height="1" fill="#000000" />
<rect x="110" y="46" width="1" height="1" fill="#000000" />
<rect x="111" y="46" width="1" height="1" fill="#000000" />
<rect x="112" y="46" width="1" height="1" fill="#000000" />
<rect x="113" y="46" width="1" height="1" fill="#000000" />
<rect x="14" y="47" width="1" height="1" fill="#000000" />
<rect x="15" y="47" width="1" height="1" fill="#000000" />
<rect x="16" y="47" width="1" height="1" fill="#000000" />
<rect x="17" y="47" width="1" height="1" fill="#000000" />
<rect x="46" y="47" width="1" height="1" fill="#000000" />
<rect x="47" y="47" width="1" height="1" fill="#000000" />
<rect x="48" y="47" width="1" height="1" fill="#000000" />
<rect x="49" y="47" width="1" height="1" fill="#000000" />
<rect x="78" y="47" width="1" height="1" fill="#000000" />
<rect x="79" y="47" width="1" height="1" fill="#000000" />
<rect x="80" y="47" width="1" height="1" fill="#000000" />
<rect x="81" y="47" width="1" height="1" fill="#000000" />
<rect x="110" y="47" width="1" height="1" fill="#000000" />
<rect x="111" y="47" width="1" height="1" fill="#000000" />
<rect x="112" y="47" width="1" height="1" fill="#000000" />
<rect x="113" y="47" width="1" height="1" fill="#000000" />
<rect x="12" y="48" width="1" height="1" fill="#000000" />
<rect x="13" y="48" width="1" height="1" fill="#000000" />
<rect x="14" y="48" width="1" height="1" fill="#000000" />
<rect x="15" y="48" width="1" height="1" fill="#000000" />
<rect x="16" y="48" width="1" height="1" fill="#000000" />
<rect x="17" y="48" width="1" height="1" fill="#000000" />
<rect x="45" y="48" width="1" height="1" fill="#000000" />
<rect x="46" y="48" width="1" height="1" fill="#000000" />
<rect x="47" y="48" width="1" height="1" fill="#000000" />
<rect x="48" y="48" width="1" height="1" fill="#000000" />
<rect x="49" y="48" width="1" height="1" fill="#000000" />
<rect x="50" y="48" width="1" height="1" fill="#000000" />
<rect x="77" y="48" width="1" height="1" fill="#000000" />
<rect x="78" y="48" width="1" height="1" fill="#000000" />
<rect x="79" y="48" width="1" height="1" fill="#000000" />
<rect x="80" y="48" width="1" height="1" fill="#000000" />
<rect x="81" y="48" width="1" height="1" fill="#000000" />
<rect x="82" y="48" width="1" height="1" fill="#000000" />
<rect x="109" y="48" width="1" height="1" fill="#000000" />
<rect x="110" y="48" width="1" height="1" fill="#000000" />
<rect x="111" y="48" width="1" height="1" fill="#000000" />
<rect x="112" y="48" width="1" height="1" fill="#000000" />
<rect x="113" y="48" width="1" height="1" fill="#000000" />
<rect x="114" y="48" width="1" height="1" fill="#000000" />
<rect x="12" y="49" width="1" height="1" fill="#000000" />
<rect x="13" y="49" width="1" height="1" fill="#000000" />
<rect x="14" y="49" width="1" height="1" fill="#000000" />
<rect x="15" y="49" width="1" height="1" fill="#000000" />
<rect x="16" y="49" width="1" height="1" fill="#000000" />
<rect x="17" y="49" width="1" height="1" fill="#000000" />
<rect x="45" y="49" width="1" height="1" fill="#000000" />
<rect x="46" y="49" width="1" height="1" fill="#000000" />
<rect x="47" y="49" width="1" height="1" fill="#000000" />
<rect x="48" y="49" width="1" height="1" fill="#000000" />
<rect x="49" y="49" width="1" height="1" fill="#000000" />
<rect x="50" y="49" width="1" height="1" fill="#000000" />
<rect x="77" y="49" width="1" height="1" fill="#000000" />
<rect x="78" y="49" width="1" height="1" fill="#000000" />
<rect x="79" y="49" width="1" height="1" fill="#000000" />
<rect x="80" y="49" width="1" height="1" fill="#000000" />
<rect x="81" y="49" width="1" height="1" fill="#000000" />
<rect x="82" y="49" width="1" height="1" fill="#000000" />
<rect x="109" y="49" width="1" height="1" fill="#000000" />
<rect x="110" y="49" width="1" height="1" fill="#000000" />
<rect x="111" y="49" width="1" height="1" fill="#000000" />
<rect x="112" y="49" width="1" height="1" fill="#000000" />
<rect x="113" y="49" width="1" height="1" fill="#000000" />
<rect x="114" y="49" width="1" height="1" fill="#000000" />
</svg>