<?xml version="1.0" encoding="UTF-8" ?>
<svg version="1.1" width="160" height="160" xmlns="http://www.w3.org/2000/svg" shape-rendering="crispEdges">
<rect x="70" y="0" width="5" height="5" fill="#000000" />
<rect x="75" y="0" width="5" height="5" fill="#000000" />
<rect x="80" y="0" width="5" height="5" fill="#000000" />
<rect x="85" y="0" width="5" height="5" fill="#000000" />
<rect x="70" y="5" width="5" height="5" fill="#000000" />
<rect x="75" y="5" width="5" height="5" fill="#000000" />
<rect x="80" y="5" width="5" height="5" fill="#000000" />
<rect x="85" y="5" width="5" height="5" fill="#000000" />
<rect x="60" y="10" width="5" height="5" fill="#000000" />
<rect x="65" y="10" width="5" height="5" fill="#000000" />
<rect x="70" y="10" width="5" height="5" fill="#000000" />
<rect x="75" y="10" width="5" height="5" fill="#000000" />
<rect x="80" y="10" width="5" height="5" fill="#000000" />
<rect x="85" y="10" width="5" height="5" fill="#000000" />
<rect x="90" y="10" width="5" height="5" fill="#000000" />
<rect x="95" y="10" width="5" height="5" fill="#000000" />
<rect x="60" y="15" width="5" height="5" fill="#000000" />
<rect x="65" y="15" width="5" height="5" fill="#000000" />
<rect x="70" y="15" width="5" height="5" fill="#000000" />
<rect x="75" y="15" width="5" height="5" fill="#000000" />
<rect x="80" y="15" width="5" height="5" fill="#000000" />
<rect x="85" y="15" width="5" height="5" fill="#000000" />
<rect x="90" y="15" width="5" height="5" fill="#000000" />
<rect x="95" y="15" width="5" height="5" fill="#000000" />
<rect x="60" y="20" width="5" height="5" fill="#000000" />
<rect x="65" y="20" width="5" height="5" fill="#000000" />
<rect x="70" y="20" width="5" height="5" fill="#000000" />
<rect x="75" y="20" width="5" height="5" fill="#000000" />
<rect x="80" y="20" width="5" height="5" fill="#000000" />
<rect x="85" y="20" width="5" height="5" fill="#000000" />
<rect x="90" y="20" width="5" height="5" fill="#000000" />
<rect x="95" y="20" width="5" height="5" fill="#000000" />
<rect x="60" y="25" width="5" height="5" fill="#000000" />
<rect x="65" y="25" width="5" height="5" fill="#000000" />
<rect x="70" y="25" width="5" height="5" fill="#000000" />
<rect x="75" y="25" width="5" height="5" fill="#000000" />
<rect x="80" y="25" width="5" height="5" fill="#000000" />
<rect x="85" y="25" width="5" height="5" fill="#000000" />
<rect x="90" y="25" width="5" height="5" fill="#000000" />
<rect x="95" y="25" width="5" height="5" fill="#000000" />
<rect x="60" y="30" width="5" height="5" fill="#000000" />
<rect x="65" y="30" width="5" height="5" fill="#000000" />
<rect x="70" y="30" width="5" height="5" fill="#000000" />
<rect x="75" y="30" width="5" height="5" fill="#000000" />
<rect x="80" y="30" width="5" height="5" fill="#000000" />
<rect x="85" y="30" width="5" height="5" fill="#000000" />
<rect x="90" y="30" width="5" height="5" fill="#000000" />
<rect x="95" y="30" width="5" height="5" fill="#000000" />
<rect x="60" y="35" width="5" height="5" fill="#000000" />
<rect x="65" y="35" width="5" height="5" fill="#000000" />
<rect x="70" y="35" width="5" height="5" fill="#000000" />
<rect x="75" y="35" width="5" height="5" fill="#000000" />
<rect x="80" y="35" width="5" height="5" fill="#000000" />
<rect x="85" y="35" width="5" height="5" fill="#000000" />
<rect x="90" y="35" width="5" height="5" fill="#000000" />
<rect x="95" y="35" width="5" height="5" fill="#000000" />
<rect x="70" y="40" width="5" height="5" fill="#000000" />
<rect x="75" y="40" width="5" height="5" fill="#000000" />
<rect x="80" y="40" width="5" height="5" fill="#000000" />
<rect x="85" y="40" width="5" height="5" fill="#000000" />
<rect x="60" y="45" width="5" height="5" fill="#000000" />
<rect x="65" y="45" width="5" height="5" fill="#000000" />
<rect x="70" y="45" width="5" height="5" fill="#000000" />
<rect x="75" y="45" width="5" height="5" fill="#000000" />
<rect x="80" y="45" width="5" height="5" fill="#000000" />
<rect x="85" y="45" width="5" height="5" fill="#000000" />
<rect x="90" y="45" width="5" height="5" fill="#000000" />
<rect x="95" y="45" width="5" height="5" fill="#000000" />
<rect x="60" y="50" width="5" height="5" fill="#000000" />
<rect x="65" y="50" width="5" height="5" fill="#000000" />
<rect x="70" y="50" width="5" height="5" fill="#000000" />
<rect x="75" y="50" width="5" height="5" fill="#000000" />
<rect x="80" y="50" width="5" height="5" fill="#000000" />
<rect x="85" y="50" width="5" height="5" fill="#000000" />
<rect x="90" y="50" width="5" height="5" fill="#000000" />
<rect x="95" y="50" width="5" height="5" fill="#000000" />
<rect x="55" y="55" width="5" height="5" fill="#000000" />
<rect x="60" y="55" width="5" height="5" fill="#000000" />
<rect x="70" y="55" width="5" height="5" fill="#000000" />
<rect x="75" y="55" width="5" height="5" fill="#000000" />
<rect x="80" y="55" width="5" height="5" fill="#000000" />
<rect x="85" y="55" width="5" height="5" fill="#000000" />
<rect x="95" y="55" width="5" height="5" fill="#000000" />
<rect x="100" y="55" width="5" height="5" fill="#000000" />
<rect x="55" y="60" width="5" height="5" fill="#000000" />
<rect x="60" y="60" width="5" height="5" fill="#000000" />
<rect x="70" y="60" width="5" height="5" fill="#000000" />
<rect x="75" y="60" width="5" height="5" fill="#000000" />
<rect x="80" y="60" width="5" height="5" fill="#000000" />
<rect x="85" y="60" width="5" height="5" fill="#000000" />
<rect x="95" y="60" width="5" height="5" fill="#000000" />
<rect x="100" y="60" width="5" height="5" fill="#000000" />
<rect x="50" y="65" width="5" height="5" fill="#000000" />
<rect x="55" y="65" width="5" height="5" fill="#000000" />
<rect x="70" y="65" width="5" height="5" fill="#000000" />
<rect x="75" y="65" width="5" height="5" fill="#000000" />
<rect x="80" y="65" width="5" height="5" fill="#000000" />
<rect x="85" y="65" width="5" height="5" fill="#000000" />
<rect x="100" y="65" width="5" height="5" fill="#000000" />
<rect x="105" y="65" width="5" height="5" fill="#000000" />
<rect x="50" y="70" width="5" height="5" fill="#000000" />
<rect x="55" y="70" width="5" height="5" fill="#000000" />
<rect x="70" y="70" width="5" height="5" fill="#000000" />
<rect x="75" y="70" width="5" height="5" fill="#000000" />
<rect x="80" y="70" width="5" height="5" fill="#000000" />
<rect x="85" y="70" width="5" height="5" fill="#000000" />
<rect x="100" y="70" width="5" height="5" fill="#000000" />
<rect x="105" y="70" width="5" height="5" fill="#000000" />
<rect x="50" y="75" width="5" height="5" fill="#000000" />
<rect x="55" y="75" width="5" height="5" fill="#000000" />
<rect x="70" y="75" width="5" height="5" fill="#000000" />
<rect x="75" y="75" width="5" height="5" fill="#000000" />
<rect x="80" y="75" width="5" height="5" fill="#000000" />
<rect x="85" y="75" width="5" height="5" fill="#000000" />
<rect x="100" y="75" width="5" height="5" fill="#000000" />
<rect x="105" y="75" width="5" height="5" fill="#000000" />
<rect x="50" y="80" width="5" height="5" fill="#000000" />
<rect x="55" y="80" width="5" height="5" fill="#000000" />
<rect x="70" y="80" width="5" height="5" fill="#000000" />
<rect x="75" y="80" width="5" height="5" fill="#000000" />
<rect x="80" y="80" width="5" height="5" fill="#000000" />
<rect x="85" y="80" width="5" height="5" fill="#000000" />
<rect x="100" y="80" width="5" height="5" fill="#000000" />
<rect x="105" y="80" width="5" height="5" fill="#000000" />
<rect x="50" y="85" width="5" height="5" fill="#000000" />
<rect x="55" y="85" width="5" height="5" fill="#000000" />
<rect x="70" y="85" width="5" height="5" fill="#000000" />
<rect x="75" y="85" width="5" height="5" fill="#000000" />
<rect x="80" y="85" width="5" height="5" fill="#000000" />
<rect x="85" y="85" width="5" height="5" fill="#000000" />
<rect x="100" y="85" width="5" height="5" fill="#000000" />
<rect x="105" y="85" width="5" height="5" fill="#000000" />
<rect x="50" y="90" width="5" height="5" fill="#000000" />
<rect x="55" y="90" width="5" height="5" fill="#000000" />
<rect x="70" y="90" width="5" height="5" fill="#000000" />
<rect x="75" y="90" width="5" height="5" fill="#000000" />
<rect x="80" y="90" width="5" height="5" fill="#000000" />
<rect x="85" y="90" width="5" height="5" fill="#000000" />
<rect x="100" y="90" width="5" height="5" fill="#000000" />
<rect x="105" y="90" width="5" height="5" fill="#000000" />
<rect x="70" y="95" width="5" height="5" fill="#000000" />
<rect x="75" y="95" width="5" height="5" fill="#000000" />
<rect x="80" y="95" width="5" height="5" fill="#000000" />
<rect x="85" y="95" width="5" height="5" fill="#000000" />
<rect x="65" y="100" width="5" height="5" fill="#000000" />
<rect x="70" y="100" width="5" height="5" fill="#000000" />
<rect x="85" y="100" width="5" height="5" fill="#000000" />
<rect x="90" y="100" width="5" height="5" fill="#000000" />
<rect x="65" y="105" width="5" height="5" fill="#000000" />
<rect x="70" y="105" width="5" height="5" fill="#000000" />
<rect x="85" y="105" width="5" height="5" fill="#000000" />
<rect x="90" y="105" width="5" height="5" fill="#000000" />
<rect x="60" y="110" width="5" height="5" fill="#000000" />
<rect x="65" y="110" width="5" height="5" fill="#000000" />
<rect x="90" y="110" width="5" height="5" fill="#000000" />
<rect x="95" y="110" width="5" height="5" fill="#000000" />
<rect x="60" y="115" width="5" height="5" fill="#000000" />
<rect x="65" y="115" width="5" height="5" fill="#000000" />
<rect x="90" y="115" width="5" height="5" fill="#000000" />
<rect x="95" y="115" width="5" height="5" fill="#000000" />
<rect x="60" y="120" width="5" height="5" fill="#000000" />
<rect x="65" y="120" width="5" height="5" fill="#000000" />
<rect x="90" y="120" width="5" height="5" fill="#000000" />
<rect x="95" y="120" width="5" height="5" fill="#000000" />
<rect x="60" y="125" width="5" height="5" fill="#000000" />
<rect x="65" y="125" width="5" height="5" fill="#000000" />
<rect x="90" y="125" width="5" height="5" fill="#000000" />
<rect x="95" y="125" width="5" height="5" fill="#000000" />
<rect x="60" y="130" width="5" height="5" fill="#000000" />
<rect x="65" y="130" width="5" height="5" fill="#000000" />
<rect x="90" y="130" width="5" height="5" fill="#000000" />
<rect x="95" y="130" width="5" height="5" fill="#000000" />
<rect x="60" y="135" width="5" height="5" fill="#000000" />
<rect x="65" y="135" width="5" height="5" fill="#000000" />
<rect x="90" y="135" width="5" height="5" fill="#000000" />
<rect x="95" y="135" width="5" height="5" fill="#000000" />
<rect x="60" y="140" width="5" height="5" fill="#000000" />
<rect x="65" y="140" width="5" height="5" fill="#000000" />
<rect x="90" y="140" width="5" height="5" fill="#000000" />
<rect x="95" y="140" width="5" height="5" fill="#000000" />
<rect x="60" y="145" width="5" height="5" fill="#000000" />
<rect x="65" y="145" width="5" height="5" fill="#000000" />
<rect x="90" y="145" width="5" height="5" fill="#000000" />
<rect x="95" y="145" width="5" height="5" fill="#000000" />
<rect x="50" y="150" width="5" height="5" fill="#000000" />
<rect x="55" y="150" width="5" height="5" fill="#000000" />
<rect x="60" y="150" width="5" height="5" fill="#000000" />
<rect x="65" y="150" width="5" height="5" fill="#000000" />
<rect x="90" y="150" width="5" height="5" fill="#000000" />
<rect x="95" y="150" width="5" height="5" fill="#000000" />
<rect x="100" y="150" width="5" height="5" fill="#000000" />
<rect x="105" y="150" width="5" height="5" fill="#000000" />
<rect x="50" y="155" width="5" height="5" fill="#000000" />
<rect x="55" y="155" width="5" height="5" fill="#000000" />
<rect x="60" y="155" width="5" height="5" fill="#000000" />
<rect x="95" y="155" width="5" height="5" fill="#000000" />
<rect x="100" y="155" width="5" height="5" fill="#000000" />
<rect x="105" y="155" width="5" height="5" fill="#000000" />
</svg>