<?xml version="1.0" encoding="UTF-8" ?>
<svg version="1.1" width="128" height="50" xmlns="http://www.w3.org/2000/svg" shape-rendering="crispEdges">
<rect x="14" y="18" width="1" height="1" fill="#000000" />
<rect x="15" y="18" width="1" height="1" fill="#000000" />
<rect x="16" y="18" width="1" height="1" fill="#000000" />
<rect x="17" y="18" width="1" height="1" fill="#000000" />
<rect x="46" y="18" width="1" height="1" fill="#000000" />
<rect x="47" y="18" width="1" height="1" fill="#000000" />
<rect x="48" y="18" width="1" height="1" fill="#000000" />
<rect x="49" y="18" width="1" height="1" fill="#000000" />
<rect x="78" y="18" width="1" height="1" fill="#000000" />
<rect x="79" y="18" width="1" height="1" fill="#000000" />
<rect x="80" y="18" width="1" height="1" fill="#000000" />
<rect x="81" y="18" width="1" height="1" fill="#000000" />
<rect x="110" y="18" width="1" height="1" fill="#000000" />
<rect x="111" y="18" width="1" height="1" fill="#000000" />
<rect x="112" y="18" width="1" height="1" fill="#000000" />
<rect x="113" y="18" width="1" height="1" fill="#000000" />
<rect x="14" y="19" width="1" height="1" fill="#000000" />
<rect x="15" y="19" width="1" height="1" fill="#000000" />
<rect x="16" y="19" width="1" height="1" fill="#000000" />
<rect x="17" y="19" width="1" height="1" fill="#000000" />
<rect x="46" y="19" width="1" height="1" fill="#000000" />
<rect x="47" y="19" width="1" height="1" fill="#000000" />
<rect x="48" y="19" width="1" height="1" fill="#000000" />
<rect x="49" y="19" width="1" height="1" fill="#000000" />
<rect x="78" y="19" width="1" height="1" fill="#000000" />
<rect x="79" y="19" width="1" height="1" fill="#000000" />
<rect x="80" y="19" width="1" height="1" fill="#000000" />
<rect x="81" y="19" width="1" height="1" fill="#000000" />
<rect x="110" y="19" width="1" height="1" fill="#000000" />
<rect x="111" y="19" width="1" height="1" fill="#000000" />
<rect x="112" y="19" width="1" height="1" fill="#000000" />
<rect x="113" y="19" width="1" height="1" fill="#000000" />
<rect x="12" y="20" width="1" height="1" fill="#000000" />
<rect x="13" y="20" width="1" height="1" fill="#000000" />
<rect x="14" y="20" width="1" height="1" fill="#000000" />
<rect x="15" y="20" width="1" height="1" fill="#000000" />
<rect x="16" y="20" width="1" height="1" fill="#000000" />
<rect x="17" y="20" width="1" height="1" fill="#000000" />
<rect x="18" y="20" width="1" height="1" fill="#000000" />
<rect x="19" y="20" width="1" height="1" fill="#000000" />
<rect x="44" y="20" width="1" height="1" fill="#000000" />
<rect x="45" y="20" width="1" height="1" fill="#000000" />
<rect x="46" y="20" width="1" height="1" fill="#000000" />
<rect x="47" y="20" width="1" height="1" fill="#000000" />
<rect x="48" y="20" width="1" height="1" fill="#000000" />
<rect x="49" y="20" width="1" height="1" fill="#000000" />
<rect x="50" y="20" width="1" height="1" fill="#000000" />
<rect x="51" y="20" width="1" height="1" fill="#000000" />
<rect x="76" y="20" width="1" height="1" fill="#000000" />
<rect x="77" y="20" width="1" height="1" fill="#000000" />
<rect x="78" y="20" width="1" height="1" fill="#000000" />
<rect x="79" y="20" width="1" height="1" fill="#000000" />
<rect x="80" y="20" width="1" height="1" fill="#000000" />
<rect x="81" y="20" width="1" height="1" fill="#000000" />
<rect x="82" y="20" width="1" height="1" fill="#000000" />
<rect x="83" y="20" width="1" height="1" fill="#000000" />
<rect x="108" y="20" width="1" height="1" fill="#000000" />
<rect x="109" y="20" width="1" height="1" fill="#000000" />
<rect x="110" y="20" width="1" height="1" fill="#000000" />
<rect x="111" y="20" width="1" height="1" fill="#000000" />
<rect x="112" y="20" width="1" height="1" fill="#000000" />
<rect x="113" y="20" width="1" height="1" fill="#000000" />
<rect x="114" y="20" width="1" height="1" fill="#000000" />
<rect x="115" y="20" width="1" height="1" fill="#000000" />
<rect x="12" y="21" width="1" height="1" fill="#000000" />
<rect x="13" y="21" width="1" height="1" fill="#000000" />
<rect x="14" y="21" width="1" height="1" fill="#000000" />
<rect x="15" y="21" width="1" height="1" fill="#000000" />
<rect x="16" y="21" width="1" height="1" fill="#000000" />
<rect x="17" y="21" width="1" height="1" fill="#000000" />
<rect x="18" y="21" width="1" height="1" fill="#000000" />
<rect x="19" y="21" width="1" height="1" fill="#000000" />
<rect x="44" y="21" width="1" height="1" fill="#000000" />
<rect x="45" y="21" width="1" height="1" fill="#000000" />
<rect x="46" y="21" width="1" height="1" fill="#000000" />
<rect x="47" y="21" width="1" height="1" fill="#000000" />
<rect x="48" y="21" width="1" height="1" fill="#000000" />
<rect x="49" y="21" width="1" height="1" fill="#000000" />
<rect x="50" y="21" width="1" height="1" fill="#000000" />
<rect x="51" y="21" width="1" height="1" fill="#000000" />
<rect x="76" y="21" width="1" height="1" fill="#000000" />
<rect x="77" y="21" width="1" height="1" fill="#000000" />
<rect x="78" y="21" width="1" height="1" fill="#000000" />
<rect x="79" y="21" width="1" height="1" fill="#000000" />
<rect x="80" y="21" width="1" height="1" fill="#000000" />
<rect x="81" y="21" width="1" height="1" fill="#000000" />
<rect x="82" y="21" width="1" height="1" fill="#000000" />
<rect x="83" y="21" width="1" height="1" fill="#000000" />
<rect x="108" y="21" width="1" height="1" fill="#000000" />
<rect x="109" y="21" width="1" height="1" fill="#000000" />
<rect x="110" y="21" width="1" height="1" fill="#000000" />
<rect x="111" y="21" width="1" height="1" fill="#000000" />
<rect x="112" y="21" width="1" height="1" fill="#000000" />
<rect x="113" y="21" width="1" height="1" fill="#000000" />
<rect x="114" y="21" width="1" height="1" fill="#000000" />
<rect x="115" y="21" width="1" height="1" fill="#000000" />
<rect x="12" y="22" width="1" height="1" fill="#000000" />
<rect x="13" y="22" width="1" height="1" fill="#000000" />
<rect x="14" y="22" width="1" height="1" fill="#000000" />
<rect x="15" y="22" width="1" height="1" fill="#000000" />
<rect x="16" y="22" width="1" height="1" fill="#000000" />
<rect x="17" y="22" width="1" height="1" fill="#000000" />
<rect x="18" y="22" width="1" height="1" fill="#000000" />
<rect x="19" y="22" width="1" height="1" fill="#000000" />
<rect x="44" y="22" width="1" height="1" fill="#000000" />
<rect x="45" y="22" width="1" height="1" fill="#000000" />
<rect x="46" y="22" width="1" height="1" fill="#000000" />
<rect x="47" y="22" width="1" height="1" fill="#000000" />
<rect x="48" y="22" width="1" height="1" fill="#000000" />
<rect x="49" y="22" width="1" height="1" fill="#000000" />
<rect x="50" y="22" width="1" height="1" fill="#000000" />
<rect x="51" y="22" width="1" height="1" fill="#000000" />
<rect x="76" y="22" width="1" height="1" fill="#000000" />
<rect x="77" y="22" width="1" height="1" fill="#000000" />
<rect x="78" y="22" width="1" height="1" fill="#000000" />
<rect x="79" y="22" width="1" height="1" fill="#000000" />
<rect x="80" y="22" width="1" height="1" fill="#000000" />
<rect x="81" y="22" width="1" height="1" fill="#000000" />
<rect x="82" y="22" width="1" height="1" fill="#000000" />
<rect x="83" y="22" width="1" height="1" fill="#000000" />
<rect x="108" y="22" width="1" height="1" fill="#000000" />
<rect x="109" y="22" width="1" height="1" fill="#000000" />
<rect x="110" y="22" width="1" height="1" fill="#000000" />
<rect x="111" y="22" width="1" height="1" fill="#000000" />
<rect x="112" y="22" width="1" height="1" fill="#000000" />
<rect x="113" y="22" width="1" height="1" fill="#000000" />
<rect x="114" y="22" width="1" height="1" fill="#000000" />
<rect x="115" y="22" width="1" height="1" fill="#000000" />
<rect x="12" y="23" width="1" height="1" fill="#000000" />
<rect x="13" y="23" width="1" height="1" fill="#000000" />
<rect x="14" y="23" width="1" height="1" fill="#000000" />
<rect x="15" y="23" width="1" height="1" fill="#000000" />
<rect x="16" y="23" width="1" height="1" fill="#000000" />
<rect x="17" y="23" width="1" height="1" fill="#000000" />
<rect x="18" y="23" width="1" height="1" fill="#000000" />
<rect x="19" y="23" width="1" height="1" fill="#000000" />
<rect x="44" y="23" width="1" height="1" fill="#000000" />
<rect x="45" y="23" width="1" height="1" fill="#000000" />
<rect x="46" y="23" width="1" height="1" fill="#000000" />
<rect x="47" y="23" width="1" height="1" fill="#000000" />
<rect x="48" y="23" width="1" height="1" fill="#000000" />
<rect x="49" y="23" width="1" height="1" fill="#000000" />
<rect x="50" y="23" width="1" height="1" fill="#000000" />
<rect x="51" y="23" width="1" height="1" fill="#000000" />
<rect x="76" y="23" width="1" height="1" fill="#000000" />
<rect x="77" y="23" width="1" height="1" fill="#000000" />
<rect x="78" y="23" width="1" height="1" fill="#000000" />
<rect x="79" y="23" width="1" height="1" fill="#000000" />
<rect x="80" y="23" width="1" height="1" fill="#000000" />
<rect x="81" y="23" width="1" height="1" fill="#000000" />
<rect x="82" y="23" width="1" height="1" fill="#000000" />
<rect x="83" y="23" width="1" height="1" fill="#000000" />
<rect x="108" y="23" width="1" height="1" fill="#000000" />
<rect x="109" y="23" width="1" height="1" fill="#000000" />
<rect x="110" y="23" width="1" height="1" fill="#000000" />
<rect x="111" y="23" width="1" height="1" fill="#000000" />
<rect x="112" y="23" width="1" height="1" fill="#000000" />
<rect x="113" y="23" width="1" height="1" fill="#000000" />
<rect x="114" y="23" width="1" height="1" fill="#000000" />
<rect x="115" y="23" width="1" height="1" fill="#000000" />
<rect x="12" y="24" width="1" height="1" fill="#000000" />
<rect x="13" y="24" width="1" height="1" fill="#000000" />
<rect x="14" y="24" width="1" height="1" fill="#000000" />
<rect x="15" y="24" width="1" height="1" fill="#000000" />
<rect x="16" y="24" width="1" height="1" fill="#000000" />
<rect x="17" y="24" width="1" height="1" fill="#000000" />
<rect x="18" y="24" width="1" height="1" fill="#000000" />
<rect x="19" y="24" width="1" height="1" fill="#000000" />
<rect x="44" y="24" width="1" height="1" fill="#000000" />
<rect x="45" y="24" width="1" height="1" fill="#000000" />
<rect x="46" y="24" width="1" height="1" fill="#000000" />
<rect x="47" y="24" width="1" height="1" fill="#000000" />
<rect x="48" y="24" width="1" height="1" fill="#000000" />
<rect x="49" y="24" width="1" height="1" fill="#000000" />
<rect x="50" y="24" width="1" height="1" fill="#000000" />
<rect x="51" y="24" width="1" height="1" fill="#000000" />
<rect x="76" y="24" width="1" height="1" fill="#000000" />
<rect x="77" y="24" width="1" height="1" fill="#000000" />
<rect x="78" y="24" width="1" height="1" fill="#000000" />
<rect x="79" y="24" width="1" height="1" fill="#000000" />
<rect x="80" y="24" width="1" height="1" fill="#000000" />
<rect x="81" y="24" width="1" height="1" fill="#000000" />
<rect x="82" y="24" width="1" height="1" fill="#000000" />
<rect x="83" y="24" width="1" height="1" fill="#000000" />
<rect x="108" y="24" width="1" height="1" fill="#000000" />
<rect x="109" y="24" width="1" height="1" fill="#000000" />
<rect x="110" y="24" width="1" height="1" fill="#000000" />
<rect x="111" y="24" width="1" height="1" fill="#000000" />
<rect x="112" y="24" width="1" height="1" fill="#000000" />
<rect x="113" y="24" width="1" height="1" fill="#000000" />
<rect x="114" y="24" width="1" height="1" fill="#000000" />
<rect x="115" y="24" width="1" height="1" fill="#000000" />
<rect x="12" y="25" width="1" height="1" fill="#000000" />
<rect x="13" y="25" width="1" height="1" fill="#000000" />
<rect x="14" y="25" width="1" height="1" fill="#000000" />
<rect x="15" y="25" width="1" height="1" fill="#000000" />
<rect x="16" y="25" width="1" height="1" fill="#000000" />
<rect x="17" y="25" width="1" height="1" fill="#000000" />
<rect x="18" y="25" width="1" height="1" fill="#000000" />
<rect x="19" y="25" width="1" height="1" fill="#000000" />
<rect x="44" y="25" width="1" height="1" fill="#000000" />
<rect x="45" y="25" width="1" height="1" fill="#000000" />
<rect x="46" y="25" width="1" height="1" fill="#000000" />
<rect x="47" y="25" width="1" height="1" fill="#000000" />
<rect x="48" y="25" width="1" height="1" fill="#000000" />
<rect x="49" y="25" width="1" height="1" fill="#000000" />
<rect x="50" y="25" width="1" height="1" fill="#000000" />
<rect x="51" y="25" width="1" height="1" fill="#000000" />
<rect x="76" y="25" width="1" height="1" fill="#000000" />
<rect x="77" y="25" width="1" height="1" fill="#000000" />
<rect x="78" y="25" width="1" height="1" fill="#000000" />
<rect x="79" y="25" width="1" height="1" fill="#000000" />
<rect x="80" y="25" width="1" height="1" fill="#000000" />
<rect x="81" y="25" width="1" height="1" fill="#000000" />
<rect x="82" y="25" width="1" height="1" fill="#000000" />
<rect x="83" y="25" width="1" height="1" fill="#000000" />
<rect x="108" y="25" width="1" height="1" fill="#000000" />
<rect x="109" y="25" width="1" height="1" fill="#000000" />
<rect x="110" y="25" width="1" height="1" fill="#000000" />
<rect x="111" y="25" width="1" height="1" fill="#000000" />
<rect x="112" y="25" width="1" height="1" fill="#000000" />
<rect x="113" y="25" width="1" height="1" fill="#000000" />
<rect x="114" y="25" width="1" height="1" fill="#000000" />
<rect x="115" y="25" width="1" height="1" fill="#000000" />
<rect x="14" y="26" width="1" height="1" fill="#000000" />
<rect x="15" y="26" width="1" height="1" fill="#000000" />
<rect x="16" y="26" width="1" height="1" fill="#000000" />
<rect x="17" y="26" width="1" height="1" fill="#000000" />
<rect x="46" y="26" width="1" height="1" fill="#000000" />
<rect x="47" y="26" width="1" height="1" fill="#000000" />
<rect x="48" y="26" width="1" height="1" fill="#000000" />
<rect x="49" y="26" width="1" height="1" fill="#000000" />
<rect x="78" y="26" width="1" height="1" fill="#000000" />
<rect x="79" y="26" width="1" height="1" fill="#000000" />
<rect x="80" y="26" width="1" height="1" fill="#000000" />
<rect x="81" y="26" width="1" height="1" fill="#000000" />
<rect x="110" y="26" width="1" height="1" fill="#000000" />
<rect x="111" y="26" width="1" height="1" fill="#000000" />
<rect x="112" y="26" width="1" height="1" fill="#000000" />
<rect x="113" y="26" width="1" height="1" fill="#000000" />
<rect x="12" y="27" width="1" height="1" fill="#000000" />
<rect x="13" y="27" width="1" height="1" fill="#000000" />
<rect x="14" y="27" width="1" height="1" fill="#000000" />
<rect x="15" y="27" width="1" height="1" fill="#000000" />
<rect x="16" y="27" width="1" height="1" fill="#000000" />
<rect x="17" y="27" width="1" height="1" fill="#000000" />
<rect x="18" y="27" width="1" height="1" fill="#000000" />
<rect x="19" y="27" width="1" height="1" fill="#000000" />
<rect x="44" y="27" width="1" height="1" fill="#000000" />
<rect x="45" y="27" width="1" height="1" fill="#000000" />
<rect x="46" y="27" width="1" height="1" fill="#000000" />
<rect x="47" y="27" width="1" height="1" fill="#000000" />
<rect x="48" y="27" width="1" height="1" fill="#000000" />
<rect x="49" y="27" width="1" height="1" fill="#000000" />
<rect x="50" y="27" width="1" height="1" fill="#000000" />
<rect x="51" y="27" width="1" height="1" fill="#000000" />
<rect x="76" y="27" width="1" height="1" fill="#000000" />
<rect x="77" y="27" width="1" height="1" fill="#000000" />
<rect x="78" y="27" width="1" height="1" fill="#000000" />
<rect x="79" y="27" width="1" height="1" fill="#000000" />
<rect x="80" y="27" width="1" height="1" fill="#000000" />
<rect x="81" y="27" width="1" height="1" fill="#000000" />
<rect x="82" y="27" width="1" height="1" fill="#000000" />
<rect x="83" y="27" width="1" height="1" fill="#000000" />
<rect x="108" y="27" width="1" height="1" fill="#000000" />
<rect x="109" y="27" width="1" height="1" fill="#000000" />
<rect x="110" y="27" width="1" height="1" fill="#000000" />
<rect x="111" y="27" width="1" height="1" fill="#000000" />
<rect x="112" y="27" width="1" height="1" fill="#000000" />
<rect x="113" y="27" width="1" height="1" fill="#000000" />
<rect x="114" y="27" width="1" height="1" fill="#000000" />
<rect x="115" y="27" width="1" height="1" fill="#000000" />
<rect x="12" y="28" width="1" height="1" fill="#000000" />
<rect x="13" y="28" width="1" height="1" fill="#000000" />
<rect x="14" y="28" width="1" height="1" fill="#000000" />
<rect x="15" y="28" width="1" height="1" fill="#000000" />
<rect x="16" y="28" width="1" height="1" fill="#000000" />
<rect x="17" y="28" width="1" height="1" fill="#000000" />
<rect x="18" y="28" width="1" height="1" fill="#000000" />
<rect x="19" y="28" width="1" height="1" fill="#000000" />
<rect x="38" y="28" width="1" height="1" fill="#000000" />
<rect x="39" y="28" width="1" height="1" fill="#000000" />
<rect x="44" y="28" width="1" height="1" fill="#000000" />
<rect x="45" y="28" width="1" height="1" fill="#000000" />
<rect x="46" y="28" width="1" height="1" fill="#000000" />
<rect x="47" y="28" width="1" height="1" fill="#000000" />
<rect x="48" y="28" width="1" height="1" fill="#000000" />
<rect x="49" y="28" width="1" height="1" fill="#000000" />
<rect x="50" y="28" width="1" height="1" fill="#000000" />
<rect x="51" y="28" width="1" height="1" fill="#000000" />
<rect x="52" y="28" width="1" height="1" fill="#000000" />
<rect x="53" y="28" width="1" height="1" fill="#000000" />
<rect x="76" y="28" width="1" height="1" fill="#000000" />
<rect x="77" y="28" width="1" height="1" fill="#000000" />
<rect x="78" y="28" width="1" height="1" fill="#000000" />
<rect x="79" y="28" width="1" height="1" fill="#000000" />
<rect x="80" y="28" width="1" height="1" fill="#000000" />
<rect x="81" y="28" width="1" height="1" fill="#000000" />
<rect x="82" y="28" width="1" height="1" fill="#000000" />
<rect x="83" y="28" width="1" height="1" fill="#000000" />
<rect x="106" y="28" width="1" height="1" fill="#000000" />
<rect x="107" y="28" width="1" height="1" fill="#000000" />
<rect x="108" y="28" width="1" height="1" fill="#000000" />
<rect x="109" y="28" width="1" height="1" fill="#000000" />
<rect x="110" y="28" width="1" height="1" fill="#000000" />
<rect x="111" y="28" width="1" height="1" fill="#000000" />
<rect x="112" y="28" width="1" height="1" fill="#000000" />
<rect x="113" y="28" width="1" height="1" fill="#000000" />
<rect x="114" y="28" width="1" height="1" fill="#000000" />
<rect x="115" y="28" width="1" height="1" fill="#000000" />
<rect x="120" y="28" width="1" height="1" fill="#000000" />
<rect x="121" y="28" width="1" height="1" fill="#000000" />
<rect x="12" y="29" width="1" height="1" fill="#000000" />
<rect x="13" y="29" width="1" height="1" fill="#000000" />
<rect x="14" y="29" width="1" height="1" fill="#000000" />
<rect x="15" y="29" width="1" height="1" fill="#000000" />
<rect x="16" y="29" width="1" height="1" fill="#000000" />
<rect x="17" y="29" width="1" height="1" fill="#000000" />
<rect x="18" y="29" width="1" height="1" fill="#000000" />
<rect x="19" y="29" width="1" height="1" fill="#000000" />
<rect x="38" y="29" width="1" height="1" fill="#000000" />
<rect x="39" y="29" width="1" height="1" fill="#000000" />
<rect x="40" y="29" width="1" height="1" fill="#000000" />
<rect x="43" y="29" width="1" height="1" fill="#000000" />
<rect x="44" y="29" width="1" height="1" fill="#000000" />
<rect x="46" y="29" width="1" height="1" fill="#000000" />
<rect x="47" y="29" width="1" height="1" fill="#000000" />
<rect x="48" y="29" width="1" height="1" fill="#000000" />
<rect x="49" y="29" width="1" height="1" fill="#000000" />
<rect x="52" y="29" width="1" height="1" fill="#000000" />
<rect x="53" y="29" width="1" height="1" fill="#000000" />
<rect x="54" y="29" width="1" height="1" fill="#000000" />
<rect x="55" y="29" width="1" height="1" fill="#000000" />
<rect x="76" y="29" width="1" height="1" fill="#000000" />
<rect x="77" y="29" width="1" height="1" fill="#000000" />
<rect x="78" y="29" width="1" height="1" fill="#000000" />
<rect x="79" y="29" width="1" height="1" fill="#000000" />
<rect x="80" y="29" width="1" height="1" fill="#000000" />
<rect x="81" y="29" width="1" height="1" fill="#000000" />
<rect x="82" y="29" width="1" height="1" fill="#000000" />
<rect x="83" y="29" width="1" height="1" fill="#000000" />
<rect x="104" y="29" width="1" height="1" fill="#000000" />
<rect x="105" y="29" width="1" height="1" fill="#000000" />
<rect x="106" y="29" width="1" height="1" fill="#000000" />
<rect x="107" y="29" width="1" height="1" fill="#000000" />
<rect x="110" y="29" width="1" height="1" fill="#000000" />
<rect x="111" y="29" width="1" height="1" fill="#000000" />
<rect x="112" y="29" width="1" height="1" fill="#000000" />
<rect x="113" y="29" width="1" height="1" fill="#000000" />
<rect x="115" y="29" width="1" height="1" fill="#000000" />
<rect x="116" y="29" width="1" height="1" fill="#000000" />
<rect x="119" y="29" width="1" height="1" fill="#000000" />
<rect x="120" y="29" width="1" height="1" fill="#000000" />
<rect x="121" y="29" width="1" height="1" fill="#000000" />
<rect x="12" y="30" width="1" height="1" fill="#000000" />
<rect x="13" y="30" width="1" height="1" fill="#000000" />
<rect x="14" y="30" width="1" height="1" fill="#000000" />
<rect x="15" y="30" width="1" height="1" fill="#000000" />
<rect x="16" y="30" width="1" height="1" fill="#000000" />
<rect x="17" y="30" width="1" height="1" fill="#000000" />
<rect x="18" y="30" width="1" height="1" fill="#000000" />
<rect x="19" y="30" width="1" height="1" fill="#000000" />
<rect x="39" y="30" width="1" height="1" fill="#000000" />
<rect x="40" y="30" width="1" height="1" fill="#000000" />
<rect x="41" y="30" width="1" height="1" fill="#000000" />
<rect x="42" y="30" width="1" height="1" fill="#000000" />
<rect x="43" y="30" width="1" height="1" fill="#000000" />
<rect x="44" y="30" width="1" height="1" fill="#000000" />
<rect x="46" y="30" width="1" height="1" fill="#000000" />
<rect x="47" y="30" width="1" height="1" fill="#000000" />
<rect x="48" y="30" width="1" height="1" fill="#000000" />
<rect x="49" y="30" width="1" height="1" fill="#000000" />
<rect x="54" y="30" width="1" height="1" fill="#000000" />
<rect x="55" y="30" width="1" height="1" fill="#000000" />
<rect x="76" y="30" width="1" height="1" fill="#000000" />
<rect x="77" y="30" width="1" height="1" fill="#000000" />
<rect x="78" y="30" width="1" height="1" fill="#000000" />
<rect x="79" y="30" width="1" height="1" fill="#000000" />
<rect x="80" y="30" width="1" height="1" fill="#000000" />
<rect x="81" y="30" width="1" height="1" fill="#000000" />
<rect x="82" y="30" width="1" height="1" fill="#000000" />
<rect x="83" y="30" width="1" height="1" fill="#000000" />
<rect x="104" y="30" width="1" height="1" fill="#000000" />
<rect x="105" y="30" width="1" height="1" fill="#000000" />
<rect x="110" y="30" width="1" height="1" fill="#000000" />
<rect x="111" y="30" width="1" height="1" fill="#000000" />
<rect x="112" y="30" width="1" height="1" fill="#000000" />
<rect x="113" y="30" width="1" height="1" fill="#000000" />
<rect x="115" y="30" width="1" height="1" fill="#000000" />
<rect x="116" y="30" width="1" height="1" fill="#000000" />
<rect x="117" y="30" width="1" height="1" fill="#000000" />
<rect x="118" y="30" width="1" height="1" fill="#000000" />
<rect x="119" y="30" width="1" height="1" fill="#000000" />
<rect x="120" y="30" width="1" height="1" fill="#000000" />
<rect x="12" y="31" width="1" height="1" fill="#000000" />
<rect x="13" y="31" width="1" height="1" fill="#000000" />
<rect x="14" y="31" width="1" height="1" fill="#000000" />
<rect x="15" y="31" width="1" height="1" fill="#000000" />
<rect x="16" y="31" width="1" height="1" fill="#000000" />
<rect x="17" y="31" width="1" height="1" fill="#000000" />
<rect x="18" y="31" width="1" height="1" fill="#000000" />
<rect x="19" y="31" width="1" height="1" fill="#000000" />
<rect x="41" y="31" width="1" height="1" fill="#000000" />
<rect x="42" y="31" width="1" height="1" fill="#000000" />
<rect x="46" y="31" width="1" height="1" fill="#000000" />
<rect x="47" y="31" width="1" height="1" fill="#000000" />
<rect x="48" y="31" width="1" height="1" fill="#000000" />
<rect x="49" y="31" width="1" height="1" fill="#000000" />
<rect x="55" y="31" width="1" height="1" fill="#000000" />
<rect x="56" y="31" width="1" height="1" fill="#000000" />
<rect x="76" y="31" width="1" height="1" fill="#000000" />
<rect x="77" y="31" width="1" height="1" fill="#000000" />
<rect x="78" y="31" width="1" height="1" fill="#000000" />
<rect x="79" y="31" width="1" height="1" fill="#000000" />
<rect x="80" y="31" width="1" height="1" fill="#000000" />
<rect x="81" y="31" width="1" height="1" fill="#000000" />
<rect x="82" y="31" width="1" height="1" fill="#000000" />
<rect x="83" y="31" width="1" height="1" fill="#000000" />
<rect x="103" y="31" width="1" height="1" fill="#000000" />
<rect x="104" y="31" width="1" height="1" fill="#000000" />
<rect x="110" y="31" width="1" height="1" fill="#000000" />
<rect x="111" y="31" width="1" height="1" fill="#000000" />
<rect x="112" y="31" width="1" height="1" fill="#000000" />
<rect x="113" y="31" width="1" height="1" fill="#000000" />
<rect x="117" y="31" width="1" height="1" fill="#000000" />
<rect x="118" y="31" width="1" height="1" fill="#000000" />
<rect x="12" y="32" width="1" height="1" fill="#000000" />
<rect x="13" y="32" width="1" height="1" fill="#000000" />
<rect x="14" y="32" width="1" height="1" fill="#000000" />
<rect x="15" y="32" width="1" height="1" fill="#000000" />
<rect x="16" y="32" width="1" height="1" fill="#000000" />
<rect x="17" y="32" width="1" height="1" fill="#000000" />
<rect x="18" y="32" width="1" height="1" fill="#000000" />
<rect x="19" y="32" width="1" height="1" fill="#000000" />
<rect x="46" y="32" width="1" height="1" fill="#000000" />
<rect x="47" y="32" width="1" height="1" fill="#000000" />
<rect x="48" y="32" width="1" height="1" fill="#000000" />
<rect x="49" y="32" width="1" height="1" fill="#000000" />
<rect x="55" y="32" width="1" height="1" fill="#000000" />
<rect x="56" y="32" width="1" height="1" fill="#000000" />
<rect x="76" y="32" width="1" height="1" fill="#000000" />
<rect x="77" y="32" width="1" height="1" fill="#000000" />
<rect x="78" y="32" width="1" height="1" fill="#000000" />
<rect x="79" y="32" width="1" height="1" fill="#000000" />
<rect x="80" y="32" width="1" height="1" fill="#000000" />
<rect x="81" y="32" width="1" height="1" fill="#000000" />
<rect x="82" y="32" width="1" height="1" fill="#000000" />
<rect x="83" y="32" width="1" height="1" fill="#000000" />
<rect x="103" y="32" width="1" height="1" fill="#000000" />
<rect x="104" y="32" width="1" height="1" fill="#000000" />
<rect x="110" y="32" width="1" height="1" fill="#000000" />
<rect x="111" y="32" width="1" height="1" fill="#000000" />
<rect x="112" y="32" width="1" height="1" fill="#000000" />
<rect x="113" y="32" width="1" height="1" fill="#000000" />
<rect x="12" y="33" width="1" height="1" fill="#000000" />
<rect x="13" y="33" width="1" height="1" fill="#000000" />
<rect x="14" y="33" width="1" height="1" fill="#000000" />
<rect x="15" y="33" width="1" height="1" fill="#000000" />
<rect x="16" y="33" width="1" height="1" fill="#000000" />
<rect x="17" y="33" width="1" height="1" fill="#000000" />
<rect x="18" y="33" width="1" height="1" fill="#000000" />
<rect x="19" y="33" width="1" height="1" fill="#000000" />
<rect x="46" y="33" width="1" height="1" fill="#000000" />
<rect x="47" y="33" width="1" height="1" fill="#000000" />
<rect x="48" y="33" width="1" height="1" fill="#000000" />
<rect x="49" y="33" width="1" height="1" fill="#000000" />
<rect x="76" y="33" width="1" height="1" fill="#000000" />
<rect x="77" y="33" width="1" height="1" fill="#000000" />
<rect x="78" y="33" width="1" height="1" fill="#000000" />
<rect x="79" y="33" width="1" height="1" fill="#000000" />
<rect x="80" y="33" width="1" height="1" fill="#000000" />
<rect x="81" y="33" width="1" height="1" fill="#000000" />
<rect x="82" y="33" width="1" height="1" fill="#000000" />
<rect x="83" y="33" width="1" height="1" fill="#000000" />
<rect x="110" y="33" width="1" height="1" fill="#000000" />
<rect x="111" y="33" width="1" height="1" fill="#000000" />
<rect x="112" y="33" width="1" height="1" fill="#000000" />
<rect x="113" y="33" width="1" height="1" fill="#000000" />
<rect x="12" y="34" width="1" height="1" fill="#000000" />
<rect x="13" y="34" width="1" height="1" fill="#000000" />
<rect x="14" y="34" width="1" height="1" fill="#000000" />
<rect x="15" y="34" width="1" height="1" fill="#000000" />
<rect x="16" y="34" width="1" height="1" fill="#000000" />
<rect x="17" y="34" width="1" height="1" fill="#000000" />
<rect x="18" y="34" width="1" height="1" fill="#000000" />
<rect x="19" y="34" width="1" height="1" fill="#000000" />
<rect x="46" y="34" width="1" height="1" fill="#000000" />
<rect x="47" y="34" width="1" height="1" fill="#000000" />
<rect x="48" y="34" width="1" height="1" fill="#000000" />
<rect x="49" y="34" width="1" height="1" fill="#000000" />
<rect x="76" y="34" width="1" height="1" fill="#000000" />
<rect x="77" y="34" width="1" height="1" fill="#000000" />
<rect x="78" y="34" width="1" height="1" fill="#000000" />
<rect x="79" y="34" width="1" height="1" fill="#000000" />
<rect x="80" y="34" width="1" height="1" fill="#000000" />
<rect x="81" y="34" width="1" height="1" fill="#000000" />
<rect x="82" y="34" width="1" height="1" fill="#000000" />
<rect x="83" y="34" width="1" height="1" fill="#000000" />
<rect x="110" y="34" width="1" height="1" fill="#000000" />
<rect x="111" y="34" width="1" height="1" fill="#000000" />
<rect x="112" y="34" width="1" height="1" fill="#000000" />
<rect x="113" y="34" width="1" height="1" fill="#000000" />
<rect x="12" y="35" width="1" height="1" fill="#000000" />
<rect x="13" y="35" width="1" height="1" fill="#000000" />
<rect x="14" y="35" width="1" height="1" fill="#000000" />
<rect x="15" y="35" width="1" height="1" fill="#000000" />
<rect x="16" y="35" width="1" height="1" fill="#000000" />
<rect x="17" y="35" width="1" height="1" fill="#000000" />
<rect x="18" y="35" width="1" height="1" fill="#000000" />
<rect x="19" y="35" width="1" height="1" fill="#000000" />
<rect x="46" y="35" width="1" height="1" fill="#000000" />
<rect x="47" y="35" width="1" height="1" fill="#000000" />
<rect x="48" y="35" width="1" height="1" fill="#000000" />
<rect x="49" y="35" width="1" height="1" fill="#000000" />
<rect x="76" y="35" width="1" height="1" fill="#000000" />
<rect x="77" y="35" width="1" height="1" fill="#000000" />
<rect x="78" y="35" width="1" height="1" fill="#000000" />
<rect x="79" y="35" width="1" height="1" fill="#000000" />
<rect x="80" y="35" width="1" height="1" fill="#000000" />
<rect x="81" y="35" width="1" height="1" fill="#000000" />
<rect x="82" y="35" width="1" height="1" fill="#000000" />
<rect x="83" y="35" width="1" height="1" fill="#000000" />
<rect x="110" y="35" width="1" height="1" fill="#000000" />
<rect x="111" y="35" width="1" height="1" fill="#000000" />
<rect x="112" y="35" width="1" height="1" fill="#000000" />
<rect x="113" y="35" width="1" height="1" fill="#000000" />
<rect x="12" y="36" width="1" height="1" fill="#000000" />
<rect x="13" y="36" width="1" height="1" fill="#000000" />
<rect x="14" y="36" width="1" height="1" fill="#000000" />
<rect x="15" y="36" width="1" height="1" fill="#000000" />
<rect x="16" y="36" width="1" height="1" fill="#000000" />
<rect x="17" y="36" width="1" height="1" fill="#000000" />
<rect x="18" y="36" width="1" height="1" fill="#000000" />
<rect x="19" y="36" width="1" height="1" fill="#000000" />
<rect x="46" y="36" width="1" height="1" fill="#000000" />
<rect x="47" y="36" width="1" height="1" fill="#000000" />
<rect x="48" y="36" width="1" height="1" fill="#000000" />
<rect x="49" y="36" width="1" height="1" fill="#000000" />
<rect x="76" y="36" width="1" height="1" fill="#000000" />
<rect x="77" y="36" width="1" height="1" fill="#000000" />
<rect x="78" y="36" width="1" height="1" fill="#000000" />
<rect x="79" y="36" width="1" height="1" fill="#000000" />
<rect x="80" y="36" width="1" height="1" fill="#000000" />
<rect x="81" y="36" width="1" height="1" fill="#000000" />
<rect x="82" y="36" width="1" height="1" fill="#000000" />
<rect x="83" y="36" width="1" height="1" fill="#000000" />
<rect x="110" y="36" width="1" height="1" fill="#000000" />
<rect x="111" y="36" width="1" height="1" fill="#000000" />
<rect x="112" y="36" width="1" height="1" fill="#000000" />
<rect x="113" y="36" width="1" height="1" fill="#000000" />
<rect x="14" y="37" width="1" height="1" fill="#000000" />
<rect x="15" y="37" width="1" height="1" fill="#000000" />
<rect x="16" y="37" width="1" height="1" fill="#000000" />
<rect x="17" y="37" width="1" height="1" fill="#000000" />
<rect x="46" y="37" width="1" height="1" fill="#000000" />
<rect x="47" y="37" width="1" height="1" fill="#000000" />
<rect x="48" y="37" width="1" height="1" fill="#000000" />
<rect x="49" y="37" width="1" height="1" fill="#000000" />
<rect x="78" y="37" width="1" height="1" fill="#000000" />
<rect x="79" y="37" width="1" height="1" fill="#000000" />
<rect x="80" y="37" width="1" height="1" fill="#000000" />
<rect x="81" y="37" width="1" height="1" fill="#000000" />
<rect x="110" y="37" width="1" height="1" fill="#000000" />
<rect x="111" y="37" width="1" height="1" fill="#000000" />
<rect x="112" y="37" width="1" height="1" fill="#000000" />
<rect x="113" y="37" width="1" height="1" fill="#000000" />
<rect x="14" y="38" width="1" height="1" fill="#000000" />
<rect x="15" y="38" width="1" height="1" fill="#000000" />
<rect x="16" y="38" width="1" height="1" fill="#000000" />
<rect x="17" y="38" width="1" height="1" fill="#000000" />
<rect x="45" y="38" width="1" height="1" fill="#000000" />
<rect x="46" y="38" width="1" height="1" fill="#000000" />
<rect x="49" y="38" width="1" height="1" fill="#000000" />
<rect x="50" y="38" width="1" height="1" fill="#000000" />
<rect x="78" y="38" width="1" height="1" fill="#000000" />
<rect x="79" y="38" width="1" height="1" fill="#000000" />
<rect x="80" y="38" width="1" height="1" fill="#000000" />
<rect x="81" y="38" width="1" height="1" fill="#000000" />
<rect x="109" y="38" width="1" height="1" fill="#000000" />
<rect x="110" y="38" width="1" height="1" fill="#000000" />
<rect x="113" y="38" width="1" height="1" fill="#000000" />
<rect x="114" y="38" width="1" height="1" fill="#000000" />
<rect x="14" y="39" width="1" height="1" fill="#000000" />
<rect x="15" y="39" width="1" height="1" fill="#000000" />
<rect x="16" y="39" width="1" height="1" fill="#000000" />
<rect x="17" y="39" width="1" height="1" fill="#000000" />
<rect x="43" y="39" width="1" height="1" fill="#000000" />
<rect x="44" y="39" width="1" height="1" fill="#000000" />
<rect x="45" y="39" width="1" height="1" fill="#000000" />
<rect x="46" y="39" width="1" height="1" fill="#000000" />
<rect x="49" y="39" width="1" height="1" fill="#000000" />
<rect x="50" y="39" width="1" height="1" fill="#000000" />
<rect x="78" y="39" width="1" height="1" fill="#000000" />
<rect x="79" y="39" width="1" height="1" fill="#000000" />
<rect x="80" y="39" width="1" height="1" fill="#000000" />
<rect x="81" y="39" width="1" height="1" fill="#000000" />
<rect x="109" y="39" width="1" height="1" fill="#000000" />
<rect x="110" y="39" width="1" height="1" fill="#000000" />
<rect x="113" y="39" width="1" height="1" fill="#000000" />
<rect x="114" y="39" width="1" height="1" fill="#000000" />
<rect x="115" y="39" width="1" height="1" fill="#000000" />
<rect x="116" y="39" width="1" height="1" fill="#000000" />
<rect x="14" y="40" width="1" height="1" fill="#000000" />
<rect x="15" y="40" width="1" height="1" fill="#000000" />
<rect x="16" y="40" width="1" height="1" fill="#000000" />
<rect x="17" y="40" width="1" height="1" fill="#000000" />
<rect x="43" y="40" width="1" height="1" fill="#000000" />
<rect x="44" y="40" width="1" height="1" fill="#000000" />
<rect x="50" y="40" width="1" height="1" fill="#000000" />
<rect x="51" y="40" width="1" height="1" fill="#000000" />
<rect x="78" y="40" width="1" height="1" fill="#000000" />
<rect x="79" y="40" width="1" height="1" fill="#000000" />
<rect x="80" y="40" width="1" height="1" fill="#000000" />
<rect x="81" y="40" width="1" height="1" fill="#000000" />
<rect x="108" y="40" width="1" height="1" fill="#000000" />
<rect x="109" y="40" width="1" height="1" fill="#000000" />
<rect x="115" y="40" width="1" height="1" fill="#000000" />
<rect x="116" y="40" width="1" height="1" fill="#000000" />
<rect x="14" y="41" width="1" height="1" fill="#000000" />
<rect x="15" y="41" width="1" height="1" fill="#000000" />
<rect x="16" y="41" width="1" height="1" fill="#000000" />
<rect x="17" y="41" width="1" height="1" fill="#000000" />
<rect x="42" y="41" width="1" height="1" fill="#000000" />
<rect x="43" y="41" width="1" height="1" fill="#000000" />
<rect x="50" y="41" width="1" height="1" fill="#000000" />
<rect x="51" y="41" width="1" height="1" fill="#000000" />
<rect x="78" y="41" width="1" height="1" fill="#000000" />
<rect x="79" y="41" width="1" height="1" fill="#000000" />
<rect x="80" y="41" width="1" height="1" fill="#000000" />
<rect x="81" y="41" width="1" height="1" fill="#000000" />
<rect x="108" y="41" width="1" height="1" fill="#000000" />
<rect x="109" y="41" width="1" height="1" fill="#000000" />
<rect x="116" y="41" width="1" height="1" fill="#000000" />
<rect x="117" y="41" width="1" height="1" fill="#000000" />
<rect x="14" y="42" width="1" height="1" fill="#000000" />
<rect x="15" y="42" width="1" height="1" fill="#000000" />
<rect x="16" y="42" width="1" height="1" fill="#000000" />
<rect x="17" y="42" width="1" height="1" fill="#000000" />
<rect x="42" y="42" width="1" height="1" fill="#000000" />
<rect x="43" y="42" width="1" height="1" fill="#000000" />
<rect x="51" y="42" width="1" height="1" fill="#000000" />
<rect x="52" y="42" width="1" height="1" fill="#000000" />
<rect x="78" y="42" width="1" height="1" fill="#000000" />
<rect x="79" y="42" width="1" height="1" fill="#000000" />
<rect x="80" y="42" width="1" height="1" fill="#000000" />
<rect x="81" y="42" width="1" height="1" fill="#000000" />
<rect x="107" y="42" width="1" height="1" fill="#000000" />
<rect x="108" y="42" width="1" height="1" fill="#000000" />
<rect x="116" y="42" width="1" height="1" fill="#000000" />
<rect x="117" y="42" width="1" height="1" fill="#000000" />
<rect x="14" y="43" width="1" height="1" fill="#000000" />
<rect x="15" y="43" width="1" height="1" fill="#000000" />
<rect x="16" y="43" width="1" height="1" fill="#000000" />
<rect x="17" y="43" width="1" height="1" fill="#000000" />
<rect x="41" y="43" width="1" height="1" fill="#000000" />
<rect x="42" y="43" width="1" height="1" fill="#000000" />
<rect x="51" y="43" width="1" height="1" fill="#000000" />
<rect x="52" y="43" width="1" height="1" fill="#000000" />
<rect x="78" y="43" width="1" height="1" fill="#000000" />
<rect x="79" y="43" width="1" height="1" fill="#000000" />
<rect x="80" y="43" width="1" height="1" fill="#000000" />
<rect x="81" y="43" width="1" height="1" fill="#000000" />
<rect x="107" y="43" width="1" height="1" fill="#000000" />
<rect x="108" y="43" width="1" height="1" fill="#000000" />
<rect x="117" y="43" width="1" height="1" fill="#000000" />
<rect x="118" y="43" width="1" height="1" fill="#000000" />
<rect x="14" y="44" width="1" height="1" fill="#000000" />
<rect x="15" y="44" width="1" height="1" fill="#000000" />
<rect x="16" y="44" width="1" height="1" fill="#000000" />
<rect x="17" y="44" width="1" height="1" fill="#000000" />
<rect x="41" y="44" width="1" height="1" fill="#000000" />
<rect x="42" y="44" width="1" height="1" fill="#000000" />
<rect x="52" y="44" width="1" height="1" fill="#000000" />
<rect x="53" y="44" width="1" height="1" fill="#000000" />
<rect x="78" y="44" width="1" height="1" fill="#000000" />
<rect x="79" y="44" width="1" height="1" fill="#000000" />
<rect x="80" y="44" width="1" height="1" fill="#000000" />
<rect x="81" y="44" width="1" height="1" fill="#000000" />
<rect x="106" y="44" width="1" height="1" fill="#000000" />
<rect x="107" y="44" width="1" height="1" fill="#000000" />
<rect x="117" y="44" width="1" height="1" fill="#000000" />
<rect x="118" y="44" width="1" height="1" fill="#000000" />
<rect x="14" y="45" width="1" height="1" fill="#000000" />
<rect x="15" y="45" width="1" height="1" fill="#000000" />
<rect x="16" y="45" width="1" height="1" fill="#000000" />
<rect x="17" y="45" width="1" height="1" fill="#000000" />
<rect x="41" y="45" width="1" height="1" fill="#000000" />
<rect x="42" y="45" width="1" height="1" fill="#000000" />
<rect x="52" y="45" width="1" height="1" fill="#000000" />
<rect x="53" y="45" width="1" height="1" fill="#000000" />
<rect x="78" y="45" width="1" height="1" fill="#000000" />
<rect x="79" y="45" width="1" height="1" fill="#000000" />
<rect x="80" y="45" width="1" height="1" fill="#000000" />
<rect x="81" y="45" width="1" height="1" fill="#000000" />
<rect x="106" y="45" width="1" height="1" fill="#000000" />
<rect x="107" y="45" width="1" height="1" fill="#000000" />
<rect x="117" y="45" width="1" height="1" fill="#000000" />
<rect x="118" y="45" width="1" height="1" fill="#000000" />
<rect x="14" y="46" width="1" height="1" fill="#000000" />
<rect x="15" y="46" width="1" height="1" fill="#000000" />
<rect x="16" y="46" width="1" height="1" fill="#000000" />
<rect x="17" y="46" width="1" height="1" fill="#000000" />
<rect x="41" y="46" width="1" height="1" fill="#000000" />
<rect x="42" y="46" width="1" height="1" fill="#000000" />
<rect x="53" y="46" width="1" height="1" fill="#000000" />
<rect x="54" y="46" width="1" height="1" fill="#000000" />
<rect x="78" y="46" width="1" height="1" fill="#000000" />
<rect x="79" y="46" width="1" height="1" fill="#000000" />
<rect x="80" y="46" width="1" height="1" fill="#000000" />
<rect x="81" y="46" width="1" height="1" fill="#000000" />
<rect x="105" y="46" width="1" height="1" fill="#000000" />
<rect x="106" y="46" width="1" height="1" fill="#000000" />
<rect x="117" y="46" width="1" height="1" fill="#000000" />
<rect x="118" y="46" width="1" height="1" fill="#000000" />
<rect x="14" y="47" width="1" height="1" fill="#000000" />
<rect x="15" y="47" width="1" height="1" fill="#000000" />
<rect x="16" y="47" width="1" height="1" fill="#000000" />
<rect x="17" y="47" width="1" height="1" fill="#000000" />
<rect x="41" y="47" width="1" height="1" fill="#000000" />
<rect x="42" y="47" width="1" height="1" fill="#000000" />
<rect x="53" y="47" width="1" height="1" fill="#000000" />
<rect x="54" y="47" width="1" height="1" fill="#000000" />
<rect x="78" y="47" width="1" height="1" fill="#000000" />
<rect x="79" y="47" width="1" height="1" fill="#000000" />
<rect x="80" y="47" width="1" height="1" fill="#000000" />
<rect x="81" y="47" width="1" height="1" fill="#000000" />
<rect x="105" y="47" width="1" height="1" fill="#000000" />
<rect x="106" y="47" width="1" height="1" fill="#000000" />
<rect x="117" y="47" width="1" height="1" fill="#000000" />
<rect x="118" y="47" width="1" height="1" fill="#000000" />
<rect x="12" y="48" width="1" height="1" fill="#000000" />
<rect x="13" y="48" width="1" height="1" fill="#000000" />
<rect x="14" y="48" width="1" height="1" fill="#000000" />
<rect x="15" y="48" width="1" height="1" fill="#000000" />
<rect x="16" y="48" width="1" height="1" fill="#000000" />
<rect x="17" y="48" width="1" height="1" fill="#000000" />
<rect x="41" y="48" width="1" height="1" fill="#000000" />
<rect x="42" y="48" width="1" height="1" fill="#000000" />
<rect x="54" y="48" width="1" height="1" fill="#000000" />
<rect x="55" y="48" width="1" height="1" fill="#000000" />
<rect x="78" y="48" width="1" height="1" fill="#000000" />
<rect x="79" y="48" width="1" height="1" fill="#000000" />
<rect x="80" y="48" width="1" height="1" fill="#000000" />
<rect x="81" y="48" width="1" height="1" fill="#000000" />
<rect x="82" y="48" width="1" height="1" fill="#000000" />
<rect x="83" y="48" width="1" height="1" fill="#000000" />
<rect x="104" y="48" width="1" height="1" fill="#000000" />
<rect x="105" y="48" width="1" height="1" fill="#000000" />
<rect x="117" y="48" width="1" height="1" fill="#000000" />
<rect x="118" y="48" width="1" height="1" fill="#000000" />
<rect x="12" y="49" width="1" height="1" fill="#000000" />
<rect x="13" y="49" width="1" height="1" fill="#000000" />
<rect x="14" y="49" width="1" height="1" fill="#000000" />
<rect x="15" y="49" width="1" height="1" fill="#000000" />
<rect x="16" y="49" width="1" height="1" fill="#000000" />
<rect x="17" y="49" width="1" height="1" fill="#000000" />
<rect x="41" y="49" width="1" height="1" fill="#000000" />
<rect x="42" y="49" width="1" height="1" fill="#000000" />
<rect x="54" y="49" width="1" height="1" fill="#000000" />
<rect x="55" y="49" width="1" height="1" fill="#000000" />
<rect x="78" y="49" width="1" height="1" fill="#000000" />
<rect x="79" y="49" width="1" height="1" fill="#000000" />
<rect x="80" y="49" width="1" height="1" fill="#000000" />
<rect x="81" y="49" width="1" height="1" fill="#000000" />
<rect x="82" y="49" width="1" height="1" fill="#000000" />
<rect x="83" y="49" width="1" height="1" fill="#000000" />
<rect x="104" y="49" width="1" height="1" fill="#000000" />
<rect x="105" y="49" width="1" height="1" fill="#000000" />
<rect x="117" y="49" width="1" height="1" fill="#000000" />
<rect x="118" y="49" width="1" height="1" fill="#000000" />
</svg>